<svg width="699" height="517" viewBox="0 0 699 517" fill="none" xmlns="http://www.w3.org/2000/svg">
<path d="M102.578 440.904C146.695 420.257 237.894 385.621 353.01 385.621C468.126 385.621 559.325 420.257 603.442 440.904C646.391 461.004 680.932 484.703 697.203 504.039C703.135 496.752 694.43 367.096 670.339 315.677C635.023 240.113 575.795 175.637 500.072 130.324C424.35 85.0119 335.5 60.8784 244.653 60.9469C212.34 60.8672 180.33 66.5743 150.476 77.738C120.622 88.9016 93.5173 105.3 70.7306 125.984C69.7628 126.858 68.804 127.738 67.8543 128.623C16.8706 176.169 -6.93519 242.319 1.75639 308.027C7.94443 354.809 23.195 452.657 44.7433 473.404C62.9902 461.142 82.3351 450.271 102.578 440.904Z" fill="#F2F2F2"/>
<path d="M358.137 417.709C398.616 417.709 431.431 411.528 431.431 403.905C431.431 396.281 398.616 390.101 358.137 390.101C317.657 390.101 284.842 396.281 284.842 403.905C284.842 411.528 317.657 417.709 358.137 417.709Z" fill="#F2F2F2"/>
<path d="M432.595 92.0259C365.406 92.0205 312.776 81.0242 312.778 66.9916C312.778 58.5786 331.428 51.0737 363.945 46.402C364.061 46.3846 364.18 46.3882 364.294 46.4126C364.409 46.4369 364.518 46.4814 364.613 46.5437C364.709 46.6059 364.79 46.6846 364.852 46.7752C364.913 46.8658 364.955 46.9665 364.973 47.0716C364.992 47.1767 364.987 47.284 364.959 47.3874C364.932 47.4909 364.882 47.5884 364.812 47.6743C364.743 47.7602 364.655 47.8329 364.555 47.8882C364.454 47.9435 364.342 47.9802 364.226 47.9964C333.595 52.3975 314.567 59.6761 314.566 66.9917C314.565 79.6814 368.615 90.4062 432.595 90.4114C496.575 90.4166 550.628 79.7006 550.629 67.0109C550.63 59.6645 531.481 52.3651 500.656 47.9617C500.539 47.9454 500.428 47.9086 500.327 47.8533C500.227 47.798 500.14 47.7254 500.07 47.6395C500.001 47.5537 499.951 47.4564 499.924 47.3531C499.896 47.2498 499.891 47.1427 499.91 47.0378C499.928 46.9329 499.969 46.8323 500.031 46.7417C500.092 46.6512 500.173 46.5725 500.268 46.5102C500.364 46.4479 500.472 46.4032 500.586 46.3786C500.701 46.354 500.819 46.3501 500.935 46.367C533.654 51.0409 552.418 58.5654 552.418 67.0111C552.416 81.0437 499.784 92.0314 432.595 92.0259Z" fill="#3F3D56"/>
<path d="M373.151 96.7343C379.229 106.133 387.934 113.925 398.396 119.332C408.858 124.739 420.709 127.571 432.764 127.545C444.819 127.518 456.655 124.634 467.087 119.181C477.52 113.729 486.183 105.898 492.211 96.4731C452.559 98.5297 412.813 98.6169 373.151 96.7343Z" fill="#00BFA6"/>
<path d="M498.803 79.214C501.734 69.9378 502.234 60.1731 500.262 50.6925C498.29 41.212 493.901 32.2759 487.442 24.5915C480.983 16.907 472.632 10.6853 463.049 6.41851C453.466 2.15177 442.914 -0.0428149 432.229 0.00844614C421.544 0.0597072 411.019 2.35541 401.487 6.71386C391.955 11.0723 383.677 17.3739 377.309 25.1198C370.941 32.8658 366.658 41.8435 364.797 51.3424C362.937 60.8413 363.552 70.6008 366.592 79.8483C410.507 84.7995 454.948 84.5863 498.803 79.214Z" fill="#00BFA6"/>
<path d="M448.698 34.7116C453.143 34.7116 456.746 31.4588 456.746 27.4464C456.746 23.4339 453.143 20.1812 448.698 20.1812C444.254 20.1812 440.651 23.4339 440.651 27.4464C440.651 31.4588 444.254 34.7116 448.698 34.7116Z" fill="white"/>
<path d="M406.667 69.4212C414.075 69.4212 420.08 64 420.08 57.3125C420.08 50.6251 414.075 45.2039 406.667 45.2039C399.26 45.2039 393.255 50.6251 393.255 57.3125C393.255 64 399.26 69.4212 406.667 69.4212Z" fill="white"/>
<path d="M432.603 121.894C437.048 121.894 440.651 118.641 440.651 114.629C440.651 110.616 437.048 107.364 432.603 107.364C428.158 107.364 424.555 110.616 424.555 114.629C424.555 118.641 428.158 121.894 432.603 121.894Z" fill="white"/>
<path d="M360.211 411.228C387.671 411.228 409.931 407.896 409.931 403.787C409.931 399.677 387.671 396.346 360.211 396.346C332.751 396.346 310.49 399.677 310.49 403.787C310.49 407.896 332.751 411.228 360.211 411.228Z" fill="#E6E6E6"/>
<path d="M194.502 489.892C240.701 489.892 278.154 482.839 278.154 474.138C278.154 465.437 240.701 458.383 194.502 458.383C148.302 458.383 110.85 465.437 110.85 474.138C110.85 482.839 148.302 489.892 194.502 489.892Z" fill="#F2F2F2"/>
<path d="M535.184 517C604.07 517 659.914 506.483 659.914 493.509C659.914 480.535 604.07 470.018 535.184 470.018C466.298 470.018 410.454 480.535 410.454 493.509C410.454 506.483 466.298 517 535.184 517Z" fill="#F2F2F2"/>
<path d="M194.247 483.228C229.661 483.228 258.37 478.931 258.37 473.631C258.37 468.331 229.661 464.035 194.247 464.035C158.833 464.035 130.125 468.331 130.125 473.631C130.125 478.931 158.833 483.228 194.247 483.228Z" fill="#E6E6E6"/>
<path d="M535.212 508.424C595.758 508.424 644.84 501.078 644.84 492.017C644.84 482.956 595.758 475.61 535.212 475.61C474.665 475.61 425.583 482.956 425.583 492.017C425.583 501.078 474.665 508.424 535.212 508.424Z" fill="#E6E6E6"/>
<path d="M51.6716 263.162C55.1285 263.162 57.9308 260.632 57.9308 257.511C57.9308 254.39 55.1285 251.86 51.6716 251.86C48.2147 251.86 45.4124 254.39 45.4124 257.511C45.4124 260.632 48.2147 263.162 51.6716 263.162Z" fill="white"/>
<path d="M489.819 345.501C493.276 345.501 496.079 342.971 496.079 339.85C496.079 336.729 493.276 334.199 489.819 334.199C486.362 334.199 483.56 336.729 483.56 339.85C483.56 342.971 486.362 345.501 489.819 345.501Z" fill="white"/>
<path d="M276.051 159.092C276.051 173.359 290.663 171.201 308.688 171.201C326.713 171.201 341.326 173.359 341.326 159.092C341.326 144.826 334.188 119.537 308.688 119.537C282.31 119.537 276.051 144.826 276.051 159.092Z" fill="#2F2E41"/>
<path d="M236.058 279.899C235.404 278.777 235.031 277.539 234.964 276.273C234.897 275.006 235.139 273.742 235.672 272.569C236.205 271.396 237.017 270.343 238.049 269.484C239.082 268.625 240.311 267.981 241.649 267.597L279.04 196.188L296.144 207.016L254.011 273.803C254.577 275.876 254.281 278.064 253.179 279.952C252.078 281.841 250.247 283.299 248.034 284.05C245.821 284.801 243.379 284.794 241.172 284.029C238.965 283.264 237.145 281.794 236.058 279.899V279.899Z" fill="#FFB8B8"/>
<path d="M268.098 205.669C267.92 205.134 267.872 204.57 267.957 204.017C268.042 203.463 268.259 202.933 268.592 202.462L280.217 186.009C281.509 183.399 283.895 181.358 286.852 180.333C289.808 179.309 293.094 179.385 295.989 180.544C298.883 181.704 301.15 183.852 302.293 186.518C303.436 189.184 303.361 192.151 302.085 194.767L296.229 213.619C296.062 214.157 295.768 214.656 295.368 215.082C294.968 215.509 294.471 215.852 293.91 216.089C293.35 216.327 292.739 216.452 292.121 216.457C291.502 216.462 290.889 216.346 290.324 216.118L270.465 208.102C269.9 207.874 269.396 207.539 268.987 207.119C268.579 206.699 268.275 206.204 268.098 205.669Z" fill="#00BFA6"/>
<path d="M371.833 417.894L361.532 421.28L342.163 387.022L357.366 382.025L371.833 417.894Z" fill="#FFB8B8"/>
<path d="M353.102 421.041L372.968 414.511L377.522 425.804L345.148 436.445C344.55 434.962 344.281 433.387 344.357 431.811C344.433 430.234 344.853 428.686 345.591 427.256C346.33 425.826 347.373 424.541 348.662 423.474C349.951 422.408 351.459 421.581 353.102 421.041Z" fill="#2F2E41"/>
<path d="M343.711 396.225L304.468 334.227C304.089 333.627 303.894 332.947 303.902 332.256C303.91 331.565 304.122 330.889 304.515 330.297L322.186 303.709C322.605 303.078 323.214 302.567 323.941 302.236C324.669 301.905 325.485 301.767 326.296 301.839C327.107 301.91 327.879 302.187 328.522 302.638C329.165 303.089 329.654 303.696 329.93 304.388L363.34 387.912C363.708 388.821 363.685 389.822 363.277 390.717C362.868 391.611 362.103 392.336 361.133 392.747L349.295 397.809C348.723 398.053 348.099 398.18 347.467 398.18C346.706 398.181 345.958 398 345.299 397.657C344.639 397.314 344.092 396.82 343.711 396.225Z" fill="#2F2E41"/>
<path d="M307.295 170.426C319.424 170.426 329.257 161.549 329.257 150.599C329.257 139.649 319.424 130.772 307.295 130.772C295.166 130.772 285.333 139.649 285.333 150.599C285.333 161.549 295.166 170.426 307.295 170.426Z" fill="#FFB8B8"/>
<path d="M276.057 240.407C258.762 205.785 276.198 186.435 284.497 179.723C286.888 177.787 289.986 176.717 293.198 176.719H324.136C326.357 176.719 328.542 177.232 330.483 178.209C332.423 179.185 334.055 180.593 335.223 182.3C336.391 184.006 337.057 185.953 337.156 187.957C337.256 189.96 336.787 191.954 335.794 193.748L315.112 231.09L276.225 240.744L276.057 240.407Z" fill="#00BFA6"/>
<path d="M301.068 427.255L290.106 427.255L284.891 389.082L301.07 389.082L301.068 427.255Z" fill="#FFB8B8"/>
<path d="M282.275 424.427H303.417V436.444H268.964C268.964 433.257 270.366 430.2 272.863 427.947C275.359 425.693 278.745 424.427 282.275 424.427Z" fill="#2F2E41"/>
<path d="M296.423 412.682L278.872 410.855C278.304 410.795 277.754 410.634 277.256 410.382C276.757 410.129 276.319 409.789 275.968 409.381C275.617 408.974 275.358 408.508 275.209 408.009C275.059 407.511 275.021 406.991 275.096 406.479L290.76 300.004C290.815 299.633 290.793 299.256 290.695 298.892L274.951 240.25C274.802 239.71 274.785 239.146 274.901 238.599C275.018 238.051 275.264 237.534 275.625 237.081C278.066 234.042 286.431 226.961 311.315 226.827H311.342C312.171 226.827 312.982 227.042 313.679 227.446C314.376 227.851 314.93 228.428 315.274 229.108L318.593 235.7C318.84 236.19 319.227 236.611 319.714 236.921C324.282 239.841 346.416 256.229 333.419 292.208C320.646 327.572 304.281 396.226 301.129 409.629C300.929 410.5 300.401 411.282 299.636 411.843C298.871 412.404 297.915 412.71 296.929 412.708C296.76 412.708 296.591 412.7 296.423 412.682Z" fill="#2F2E41"/>
<path d="M383.729 155.576C383.772 156.021 383.854 156.462 383.973 156.896L354.155 186.528L343.624 184.479L338.121 198.423L356.374 203.686C357.849 204.111 359.436 204.093 360.898 203.635C362.361 203.176 363.618 202.301 364.483 201.142L392.669 163.367C394.573 163.443 396.458 162.995 398.073 162.08C399.687 161.166 400.956 159.83 401.709 158.249C402.462 156.668 402.664 154.918 402.288 153.231C401.912 151.544 400.976 150 399.605 148.805C398.234 147.61 396.492 146.82 394.611 146.54C392.73 146.261 390.8 146.505 389.076 147.24C387.353 147.975 385.918 149.166 384.963 150.655C384.008 152.144 383.578 153.861 383.729 155.576H383.729Z" fill="#FFB8B8"/>
<path d="M353.252 187.784L346.339 205.036C346.142 205.527 345.831 205.974 345.426 206.347C345.02 206.719 344.531 207.008 343.991 207.194C343.451 207.381 342.872 207.459 342.295 207.426C341.718 207.392 341.156 207.246 340.647 206.999L322.81 198.323C320.033 197.401 317.774 195.522 316.529 193.099C315.284 190.675 315.155 187.905 316.17 185.395C317.185 182.886 319.26 180.842 321.942 179.713C324.624 178.583 327.692 178.46 330.474 179.37L350.268 182.988C350.835 183.092 351.37 183.305 351.837 183.612C352.305 183.919 352.693 184.314 352.976 184.769C353.26 185.224 353.431 185.729 353.478 186.249C353.526 186.77 353.449 187.293 353.252 187.784V187.784Z" fill="#00BFA6"/>
<path d="M334.172 149.405H325.486L321.654 139.718L320.887 149.405H316.736L314.5 143.754L314.053 149.405H283.204C283.204 143.838 285.653 138.5 290.013 134.564C294.373 130.628 300.287 128.417 306.453 128.417H310.923C317.089 128.417 323.003 130.628 327.363 134.564C331.723 138.5 334.172 143.838 334.172 149.405Z" fill="#2F2E41"/>
<path d="M102.193 356.802H99.0632V353.977C99.0632 353.013 98.6393 352.089 97.8847 351.408C97.1301 350.727 96.1066 350.344 95.0394 350.344C93.9722 350.344 92.9488 350.727 92.1942 351.408C91.4395 352.089 91.0156 353.013 91.0156 353.977V356.802H87.886C86.8188 356.802 85.7953 357.185 85.0407 357.866C84.2861 358.547 83.8622 359.471 83.8622 360.435C83.8622 361.398 84.2861 362.322 85.0407 363.003C85.7953 363.685 86.8188 364.067 87.886 364.067H91.0156V366.893C91.0156 367.856 91.4395 368.78 92.1942 369.461C92.9488 370.143 93.9722 370.525 95.0394 370.525C96.1066 370.525 97.1301 370.143 97.8847 369.461C98.6393 368.78 99.0632 367.856 99.0632 366.893V364.067H102.193C103.26 364.067 104.283 363.685 105.038 363.003C105.793 362.322 106.217 361.398 106.217 360.435C106.217 359.471 105.793 358.547 105.038 357.866C104.283 357.185 103.26 356.802 102.193 356.802Z" fill="white"/>
<path d="M562.838 287.508H561.211V286.039C561.211 285.538 560.99 285.058 560.598 284.703C560.205 284.349 559.673 284.15 559.118 284.15C558.563 284.15 558.031 284.349 557.639 284.703C557.246 285.058 557.026 285.538 557.026 286.039V287.508H555.399C554.844 287.508 554.311 287.707 553.919 288.062C553.527 288.416 553.306 288.896 553.306 289.397C553.306 289.898 553.527 290.379 553.919 290.733C554.311 291.087 554.844 291.286 555.399 291.286H557.026V292.755C557.026 293.256 557.246 293.737 557.639 294.091C558.031 294.445 558.563 294.644 559.118 294.644C559.673 294.644 560.205 294.445 560.598 294.091C560.99 293.737 561.211 293.256 561.211 292.755V291.286H562.838C563.393 291.286 563.925 291.087 564.318 290.733C564.71 290.379 564.93 289.898 564.93 289.397C564.93 288.896 564.71 288.416 564.318 288.062C563.925 287.707 563.393 287.508 562.838 287.508Z" fill="#FF6584"/>
<path d="M88.0292 189.832H86.4017V188.362C86.4017 188.114 86.3476 187.869 86.2425 187.639C86.1373 187.41 85.9832 187.202 85.7889 187.027C85.5946 186.851 85.3639 186.712 85.1101 186.617C84.8562 186.522 84.5841 186.473 84.3094 186.473C84.0346 186.473 83.7625 186.522 83.5086 186.617C83.2548 186.712 83.0241 186.851 82.8298 187.027C82.6355 187.202 82.4814 187.41 82.3763 187.639C82.2711 187.869 82.217 188.114 82.217 188.362V189.832H80.5896C80.0346 189.832 79.5024 190.031 79.11 190.385C78.7176 190.739 78.4972 191.22 78.4972 191.72C78.4972 192.221 78.7176 192.702 79.11 193.056C79.5024 193.41 80.0346 193.609 80.5896 193.609H82.217V195.079C82.217 195.327 82.2711 195.572 82.3763 195.802C82.4814 196.031 82.6355 196.239 82.8298 196.414C83.0241 196.59 83.2548 196.729 83.5086 196.824C83.7625 196.919 84.0346 196.968 84.3094 196.968C84.5841 196.968 84.8562 196.919 85.1101 196.824C85.3639 196.729 85.5946 196.59 85.7889 196.414C85.9832 196.239 86.1373 196.031 86.2425 195.802C86.3476 195.572 86.4017 195.327 86.4017 195.079V193.609H88.0292C88.5841 193.609 89.1163 193.41 89.5087 193.056C89.9011 192.702 90.1215 192.221 90.1215 191.72C90.1215 191.22 89.9011 190.739 89.5087 190.385C89.1163 190.031 88.5841 189.832 88.0292 189.832Z" fill="#00BFA6"/>
<path d="M208.743 189.832H207.116V188.362C207.116 187.861 206.895 187.381 206.503 187.027C206.11 186.672 205.578 186.473 205.023 186.473C204.468 186.473 203.936 186.672 203.544 187.027C203.151 187.381 202.931 187.861 202.931 188.362V189.832H201.304C200.749 189.832 200.216 190.031 199.824 190.385C199.432 190.739 199.211 191.22 199.211 191.72C199.211 192.221 199.432 192.702 199.824 193.056C200.216 193.41 200.749 193.609 201.304 193.609H202.931V195.079C202.931 195.58 203.151 196.06 203.544 196.414C203.936 196.769 204.468 196.968 205.023 196.968C205.578 196.968 206.11 196.769 206.503 196.414C206.895 196.06 207.116 195.58 207.116 195.079V193.609H208.743C209.298 193.609 209.83 193.41 210.223 193.056C210.615 192.702 210.836 192.221 210.836 191.72C210.836 191.22 210.615 190.739 210.223 190.385C209.83 190.031 209.298 189.832 208.743 189.832Z" fill="white"/>
<path d="M624.536 383.571H622.909V382.101C622.909 381.6 622.688 381.12 622.296 380.766C621.904 380.411 621.371 380.212 620.817 380.212C620.262 380.212 619.729 380.411 619.337 380.766C618.945 381.12 618.724 381.6 618.724 382.101V383.571H617.097C616.542 383.571 616.01 383.77 615.617 384.124C615.225 384.478 615.004 384.959 615.004 385.459C615.004 385.96 615.225 386.441 615.617 386.795C616.01 387.149 616.542 387.348 617.097 387.348H618.724V388.818C618.724 389.319 618.945 389.799 619.337 390.153C619.729 390.508 620.262 390.707 620.817 390.707C621.371 390.707 621.904 390.508 622.296 390.153C622.688 389.799 622.909 389.319 622.909 388.818V387.348H624.536C625.091 387.348 625.623 387.149 626.016 386.795C626.408 386.441 626.629 385.96 626.629 385.459C626.629 384.959 626.408 384.478 626.016 384.124C625.623 383.77 625.091 383.571 624.536 383.571Z" fill="white"/>
<path d="M436.759 226.158H435.131V224.689C435.131 224.188 434.911 223.707 434.518 223.353C434.126 222.999 433.594 222.8 433.039 222.8C432.484 222.8 431.952 222.999 431.559 223.353C431.167 223.707 430.947 224.188 430.947 224.689V226.158H429.319C428.764 226.158 428.232 226.357 427.84 226.711C427.447 227.065 427.227 227.546 427.227 228.047C427.227 228.548 427.447 229.028 427.84 229.382C428.232 229.737 428.764 229.936 429.319 229.936H430.947V231.405C430.947 231.906 431.167 232.386 431.559 232.741C431.952 233.095 432.484 233.294 433.039 233.294C433.594 233.294 434.126 233.095 434.518 232.741C434.911 232.386 435.131 231.906 435.131 231.405V229.936H436.759C437.314 229.936 437.846 229.737 438.238 229.382C438.631 229.028 438.851 228.548 438.851 228.047C438.851 227.546 438.631 227.065 438.238 226.711C437.846 226.357 437.314 226.158 436.759 226.158Z" fill="white"/>
<path d="M149.727 266.52H148.1V265.051C148.1 264.55 147.879 264.069 147.487 263.715C147.095 263.361 146.562 263.162 146.007 263.162C145.453 263.162 144.92 263.361 144.528 263.715C144.136 264.069 143.915 264.55 143.915 265.051V266.52H142.288C141.733 266.52 141.201 266.719 140.808 267.073C140.416 267.428 140.195 267.908 140.195 268.409C140.195 268.91 140.416 269.39 140.808 269.745C141.201 270.099 141.733 270.298 142.288 270.298H143.915V271.767C143.915 272.268 144.136 272.749 144.528 273.103C144.92 273.457 145.453 273.656 146.007 273.656C146.562 273.656 147.095 273.457 147.487 273.103C147.879 272.749 148.1 272.268 148.1 271.767V270.298H149.727C150.282 270.298 150.814 270.099 151.207 269.745C151.599 269.39 151.82 268.91 151.82 268.409C151.82 267.908 151.599 267.428 151.207 267.073C150.814 266.719 150.282 266.52 149.727 266.52Z" fill="white"/>
<path d="M155.092 132.517H153.465V131.048C153.465 130.547 153.245 130.067 152.852 129.712C152.46 129.358 151.928 129.159 151.373 129.159C150.818 129.159 150.286 129.358 149.893 129.712C149.501 130.067 149.28 130.547 149.28 131.048V132.517H147.653C147.098 132.517 146.566 132.716 146.173 133.071C145.781 133.425 145.561 133.905 145.561 134.406C145.561 134.907 145.781 135.388 146.173 135.742C146.566 136.096 147.098 136.295 147.653 136.295H149.28V137.764C149.28 138.265 149.501 138.746 149.893 139.1C150.286 139.454 150.818 139.653 151.373 139.653C151.928 139.653 152.46 139.454 152.852 139.1C153.245 138.746 153.465 138.265 153.465 137.764V136.295H155.092C155.647 136.295 156.18 136.096 156.572 135.742C156.964 135.388 157.185 134.907 157.185 134.406C157.185 133.905 156.964 133.425 156.572 133.071C156.18 132.716 155.647 132.517 155.092 132.517Z" fill="white"/>
</svg>
