<svg width="832" height="528" viewBox="0 0 832 528" fill="none" xmlns="http://www.w3.org/2000/svg">
<g clip-path="url(#clip0)">
<path d="M79.9313 325.251C67.2027 348.526 63.8404 480.989 63.0911 523.45C63.0719 524.407 63.0527 525.314 63.0431 526.171H30.823C30.4292 525.264 30.0641 524.369 29.7182 523.45C10.6206 474.689 21.2165 416.224 21.7737 413.266C20.3231 422.561 26.8843 449.501 34.3006 475.596C38.8252 395.36 77.5104 329.302 79.9313 325.251Z" fill="#E6E6E6"/>
<path d="M765.228 99.3394C790.452 145.462 797.115 407.966 798.6 492.11C798.638 494.006 798.676 495.804 798.695 497.503H862.546C863.326 495.705 864.05 493.932 864.735 492.11C902.581 395.481 881.583 279.62 880.479 273.759C883.353 292.179 870.351 345.566 855.654 397.279C846.688 238.274 770.025 107.367 765.228 99.3394Z" fill="#E6E6E6"/>
<path d="M468.613 494.786C457.436 511.464 923.108 511.464 911.897 494.782C923.074 478.108 457.402 478.108 468.613 494.786Z" fill="#E6E6E6"/>
<path d="M228.144 485.443C229.934 485.443 229.97 492.653 228.144 492.653H161.281C160.497 492.686 159.852 491.098 159.839 489.107C159.824 487.075 160.481 485.406 161.281 485.443H228.144Z" fill="#3F3D56"/>
<path d="M207.031 458.588C209.354 458.588 209.367 465.798 207.031 465.798H182.416C181.408 465.83 180.577 464.243 180.561 462.252C180.542 460.219 181.387 458.551 182.416 458.588H207.031Z" fill="#00BFA6"/>
<path d="M228.144 513.294C229.934 513.294 229.97 520.504 228.144 520.504H161.281C160.497 520.537 159.852 518.949 159.839 516.958C159.824 514.926 160.481 513.257 161.281 513.294H228.144Z" fill="#3F3D56"/>
<path d="M146.994 422.904H242.344C243.364 422.904 244.341 423.428 245.062 424.361C245.783 425.294 246.188 426.558 246.189 427.877V551.214C246.188 552.533 245.783 553.797 245.062 554.73C244.341 555.663 243.364 556.187 242.344 556.187H146.994C145.975 556.187 144.997 555.663 144.276 554.73C143.555 553.797 143.15 552.533 143.15 551.214V427.877C143.15 426.558 143.555 425.294 144.276 424.361C144.997 423.428 145.975 422.904 146.994 422.904V422.904ZM144.688 551.214C144.689 552.005 144.933 552.762 145.365 553.321C145.797 553.88 146.383 554.196 146.994 554.198H242.344C242.955 554.196 243.541 553.88 243.973 553.321C244.405 552.762 244.649 552.005 244.651 551.214V427.877C244.649 427.086 244.405 426.329 243.973 425.77C243.541 425.211 242.955 424.895 242.344 424.893H146.994C146.383 424.895 145.797 425.211 145.365 425.77C144.933 426.329 144.689 427.086 144.688 427.877V551.214Z" fill="#3F3D56"/>
<path d="M278.675 325.003L270.94 320L277.386 297.487L279.085 286.133C279.305 284.658 279.821 283.284 280.581 282.147C281.341 281.011 282.319 280.153 283.415 279.658C284.512 279.164 285.69 279.05 286.831 279.329C287.973 279.607 289.037 280.269 289.919 281.246V281.246C291.226 282.695 292.047 284.744 292.208 286.961C292.369 289.178 291.858 291.388 290.783 293.127L284.476 303.323L278.675 325.003Z" fill="#A0616A"/>
<path d="M281.256 322.501L279.829 328.277L273.427 354.225C272.8 356.769 271.619 359.025 270.026 360.722C268.433 362.419 266.495 363.486 264.444 363.794C262.394 364.102 260.319 363.638 258.467 362.459C256.615 361.279 255.066 359.433 254.005 357.143L233.25 311.128C232.918 310.411 232.634 309.658 232.403 308.878C231.4 305.473 231.45 301.699 232.542 298.34C233.635 294.981 235.686 292.296 238.269 290.842C240.852 289.389 243.769 289.279 246.414 290.535C249.058 291.791 251.227 294.317 252.469 297.588L265.14 332.508L270.939 315.832L281.256 322.501Z" fill="#E6E6E6"/>
<path d="M278.269 490.112L264.087 491.78L256.352 419.238C230.854 424.787 206.799 426.564 185.992 419.852C184.234 419.293 182.584 418.269 181.146 416.846C179.708 415.422 178.514 413.63 177.637 411.581C176.76 409.531 176.22 407.27 176.051 404.938C175.882 402.606 176.088 400.254 176.655 398.03C179.145 388.417 183.532 378.115 188.668 367.542L222.832 383.384L224.122 390.055L260.562 384.088C262.402 383.787 264.271 383.984 266.049 384.667C267.827 385.35 269.476 386.504 270.891 388.055C272.306 389.607 273.455 391.522 274.267 393.68C275.079 395.837 275.535 398.189 275.607 400.587L278.269 490.112Z" fill="#2F2E41"/>
<path d="M293.712 504.169C293.849 502.928 293.707 501.662 293.305 500.522C292.903 499.382 292.257 498.415 291.443 497.735L276.885 488.494L265.91 490.286L263.318 502.306C263.208 503.162 263.234 504.039 263.395 504.881C263.556 505.724 263.847 506.516 264.252 507.208C264.657 507.901 265.166 508.48 265.749 508.909C266.332 509.339 266.977 509.61 267.644 509.707L288.124 509.765C289.435 509.956 290.752 509.478 291.796 508.433C292.839 507.388 293.527 505.859 293.712 504.169V504.169Z" fill="#2F2E41"/>
<path d="M281.851 480.838L267.669 482.505L259.934 409.963C234.436 415.512 210.381 417.29 189.575 410.577C187.816 410.018 186.167 408.994 184.729 407.571C183.291 406.147 182.096 404.355 181.219 402.306C180.342 400.257 179.803 397.995 179.634 395.663C179.465 393.331 179.67 390.979 180.238 388.755C182.728 379.142 187.115 368.84 192.25 358.267L226.415 374.109L227.704 380.78L264.144 374.813C265.984 374.512 267.853 374.709 269.631 375.392C271.409 376.075 273.058 377.229 274.473 378.78C275.888 380.332 277.038 382.247 277.85 384.405C278.661 386.562 279.117 388.914 279.189 391.312L281.851 480.838Z" fill="#2F2E41"/>
<path d="M297.295 494.894C297.431 493.653 297.29 492.388 296.887 491.247C296.485 490.107 295.839 489.14 295.025 488.46L280.468 479.219L269.492 481.011L266.9 493.031C266.791 493.887 266.817 494.764 266.978 495.606C267.138 496.449 267.43 497.241 267.834 497.933C268.239 498.626 268.749 499.205 269.332 499.634C269.915 500.064 270.56 500.335 271.226 500.432L291.706 500.49C293.017 500.681 294.335 500.203 295.378 499.158C296.421 498.113 297.109 496.584 297.295 494.894Z" fill="#2F2E41"/>
<path d="M256.066 282.389C246.454 282.389 238.662 272.309 238.662 259.876C238.662 247.442 246.454 237.363 256.066 237.363C265.678 237.363 273.471 247.442 273.471 259.876C273.471 272.309 265.678 282.389 256.066 282.389Z" fill="#A0616A"/>
<path d="M255.421 305.736L235.439 302.4L243.174 271.549H262.512L255.421 305.736Z" fill="#A0616A"/>
<path d="M260.86 336.844C259.846 340.485 258.377 343.886 256.511 346.911C253.85 351.134 250.654 354.742 247.058 357.578C246.431 358.103 245.782 358.606 245.109 359.101L241.27 363.332L227.706 378.275L190.318 359.933C198.564 336.229 208.852 317.49 220.642 302.397C223.092 297.749 226.583 294.185 230.647 292.184C234.711 290.183 239.151 289.841 243.369 291.204L257.357 295.728C262.333 310.918 264.183 324.886 260.86 336.844Z" fill="#E6E6E6"/>
<path d="M291.316 271.973C291.534 271.695 291.819 271.522 292.124 271.483C292.429 271.445 292.735 271.542 292.991 271.76C293.333 272.227 304.53 280.81 303.828 281.661C303.849 281.919 303.825 282.18 303.757 282.425C303.69 282.669 303.581 282.891 303.439 283.074L277.416 316.589C277.289 316.752 277.139 316.881 276.974 316.968C276.809 317.055 276.632 317.099 276.453 317.097C275.93 317.962 267.401 305.389 266.97 305.148C266.724 304.817 266.588 304.373 266.593 303.913C266.599 303.453 266.744 303.015 266.998 302.693L291.316 271.973Z" fill="#3F3D56"/>
<path d="M301.208 281.303L300.149 280.43C300.254 280.687 300.291 280.983 300.253 281.27C300.214 281.557 300.103 281.82 299.937 282.016C299.77 282.212 299.558 282.331 299.333 282.355C299.109 282.378 298.885 282.303 298.696 282.144L291.844 276.05C291.69 275.909 291.57 275.717 291.496 275.493C291.422 275.27 291.398 275.024 291.426 274.784C291.453 274.544 291.532 274.318 291.653 274.132C291.774 273.946 291.932 273.807 292.11 273.731C291.839 273.611 291.401 272.899 291.106 273.347L268.053 302.652C267.232 303.169 276.43 313.479 276.435 313.884C277.121 314.874 300.768 282.063 301.27 282.04C301.309 281.99 301.339 281.929 301.357 281.862C301.375 281.795 301.381 281.723 301.375 281.652C301.369 281.582 301.351 281.514 301.322 281.453C301.293 281.393 301.254 281.342 301.208 281.303V281.303Z" fill="white"/>
<path d="M274.601 296.181L281.673 304.806L298.494 283.309L289.957 276.121L274.601 296.181Z" fill="#00BFA6"/>
<path d="M297.84 288.614C297.438 288.233 299.234 286.542 299.311 286.263C299.358 286.206 299.42 286.174 299.484 286.174C299.549 286.174 299.611 286.206 299.657 286.264C300.059 286.644 298.264 288.336 298.186 288.614C298.14 288.672 298.078 288.704 298.013 288.704C297.949 288.704 297.887 288.672 297.84 288.614V288.614Z" fill="#E6E6E6"/>
<path d="M295.362 291.372C295.583 291.266 296.88 288.954 297.179 289.469C297.581 289.85 295.785 291.541 295.708 291.82C295.487 292.113 295.134 291.658 295.362 291.372Z" fill="#E6E6E6"/>
<path d="M276.417 303.584C276.448 306.357 273.081 306.357 273.112 303.584C273.081 300.812 276.448 300.812 276.417 303.584Z" fill="#00BFA6"/>
<path opacity="0.2" d="M256.51 346.911C253.85 351.135 250.654 354.742 247.058 357.578C246.431 358.103 245.782 358.606 245.109 359.101L241.27 363.332C233.65 350.377 234.079 311.016 234.079 311.016L245.677 312.516L256.51 346.911Z" fill="black"/>
<path d="M279.272 336.587L271.537 331.584L277.983 309.071L279.682 297.717C279.902 296.242 280.419 294.868 281.179 293.732C281.938 292.596 282.916 291.737 284.012 291.243C285.109 290.748 286.287 290.634 287.428 290.913C288.57 291.192 289.635 291.853 290.516 292.831V292.831C291.823 294.28 292.644 296.329 292.805 298.545C292.966 300.762 292.455 302.973 291.38 304.711L285.074 314.908L279.272 336.587Z" fill="#A0616A"/>
<path d="M271.537 327.415L281.851 334.086L274.024 365.809C273.462 368.087 272.454 370.139 271.099 371.765C269.743 373.391 268.086 374.537 266.288 375.091V375.091C264.07 375.773 261.742 375.525 259.641 374.381C257.54 373.238 255.776 371.258 254.603 368.73L233.848 322.713C232.377 319.542 231.923 315.753 232.583 312.155C233.243 308.556 234.964 305.435 237.379 303.456V303.456C238.678 302.392 240.136 301.694 241.657 301.406C243.178 301.119 244.73 301.249 246.209 301.789C247.689 302.328 249.065 303.265 250.246 304.537C251.428 305.81 252.389 307.39 253.067 309.175L265.736 344.092L271.537 327.415Z" fill="#E6E6E6"/>
<path d="M262.617 251.107C264.035 252.637 265.636 253.859 267.357 254.726C268.221 255.151 269.146 255.327 270.067 255.242C270.989 255.156 271.885 254.811 272.693 254.23C273.578 253.407 274.276 252.292 274.715 251C275.153 249.709 275.314 248.289 275.183 246.889C274.888 244.088 274.018 241.44 272.663 239.221C270.327 235.018 267.255 231.589 263.699 229.215C260.143 226.84 256.203 225.588 252.201 225.559C248.199 225.53 244.248 226.727 240.672 229.05C237.095 231.373 233.995 234.758 231.623 238.927C229.894 241.719 228.83 245.102 228.563 248.662C228.314 254.916 231.622 260.755 231.269 267.001C230.969 272.283 228.038 276.809 224.566 279.618C221.095 282.426 217.082 283.851 213.201 285.537C209.319 287.224 205.393 289.306 202.52 293.08C199.647 296.854 198.063 302.712 199.64 307.6C200.936 311.617 204.015 314.171 207.103 315.901C215.382 320.487 224.682 320.939 233.204 317.169C236.346 315.76 239.777 312.941 239.824 308.64C239.845 306.773 239.196 305.021 238.806 303.223C238.416 301.426 238.343 299.282 239.321 297.909C240.534 296.207 242.776 296.599 244.226 297.957C245.675 299.315 246.618 301.374 247.814 303.096C250.085 306.367 253.528 308.456 256.894 307.84C260.259 307.224 263.3 303.516 263.439 299.123C263.678 291.578 256.37 286.854 255.576 279.372C255.045 274.375 257.56 269.804 259.739 265.621C261.918 261.439 263.945 256.199 262.42 251.557" fill="#2F2E41"/>
<path d="M505.145 491.638H792.317C793.726 491.636 795.078 490.911 796.075 489.621C797.072 488.332 797.633 486.583 797.635 484.759V167.108C797.633 165.285 797.072 163.536 796.075 162.247C795.078 160.957 793.726 160.232 792.317 160.229H505.145C503.735 160.232 502.383 160.957 501.386 162.247C500.389 163.536 499.828 165.285 499.827 167.108V484.759C499.828 486.583 500.389 488.332 501.386 489.621C502.383 490.911 503.735 491.636 505.145 491.638V491.638ZM792.317 162.981C793.163 162.982 793.974 163.418 794.572 164.191C795.17 164.965 795.506 166.014 795.507 167.108V484.759C795.506 485.854 795.17 486.903 794.572 487.677C793.974 488.45 793.163 488.886 792.317 488.887H505.145C504.299 488.886 503.488 488.45 502.889 487.677C502.291 486.903 501.955 485.854 501.954 484.759V167.108C501.955 166.014 502.291 164.965 502.889 164.191C503.488 163.418 504.299 162.982 505.145 162.981H792.317Z" fill="#3F3D56"/>
<path d="M747.696 463.173C735.732 463.173 726.033 450.627 726.033 435.152C726.033 419.676 735.732 407.13 747.696 407.13C759.66 407.13 769.359 419.676 769.359 435.152C769.359 450.627 759.66 463.173 747.696 463.173Z" fill="#E6E6E6"/>
<path d="M697.665 416.471C698.622 416.473 699.539 416.965 700.215 417.841C700.891 418.717 701.271 419.903 701.271 421.141C701.271 422.378 700.891 423.565 700.215 424.441C699.539 425.316 698.622 425.809 697.665 425.811H527.459C526.501 425.811 525.583 425.319 524.906 424.443C524.229 423.567 523.848 422.38 523.848 421.141C523.848 419.902 524.229 418.714 524.906 417.839C525.583 416.963 526.501 416.471 527.459 416.471H697.665Z" fill="#E6E6E6"/>
<path d="M697.665 444.492C698.623 444.492 699.541 444.984 700.218 445.86C700.895 446.736 701.276 447.924 701.276 449.162C701.276 450.401 700.895 451.589 700.218 452.465C699.541 453.341 698.623 453.833 697.665 453.833H624.425C623.95 453.834 623.48 453.713 623.041 453.479C622.603 453.245 622.204 452.901 621.868 452.467C621.532 452.033 621.266 451.518 621.084 450.951C620.903 450.384 620.809 449.776 620.809 449.162C620.809 448.549 620.903 447.941 621.084 447.374C621.266 446.807 621.532 446.291 621.868 445.858C622.204 445.424 622.603 445.08 623.041 444.846C623.48 444.611 623.95 444.491 624.425 444.492H697.665Z" fill="#E6E6E6"/>
<path d="M436.916 380.845H724.088C725.498 380.843 726.85 380.118 727.847 378.828C728.844 377.538 729.404 375.79 729.406 373.966V210.948C729.404 209.125 728.844 207.376 727.847 206.087C726.85 204.797 725.498 204.071 724.088 204.069H436.916C435.506 204.071 434.155 204.797 433.158 206.087C432.161 207.376 431.6 209.125 431.598 210.948V373.966C431.6 375.79 432.161 377.539 433.158 378.828C434.155 380.118 435.506 380.843 436.916 380.845Z" fill="#FF6585"/>
<path d="M665.606 260.891C666.562 260.892 667.479 261.385 668.155 262.261C668.831 263.137 669.211 264.323 669.211 265.561C669.211 266.798 668.831 267.985 668.155 268.861C667.479 269.736 666.562 270.229 665.606 270.231H495.399C494.442 270.229 493.525 269.736 492.849 268.861C492.173 267.985 491.794 266.798 491.794 265.561C491.794 264.323 492.173 263.137 492.849 262.261C493.525 261.385 494.442 260.892 495.399 260.891H665.606Z" fill="white"/>
<path d="M665.606 287.952C666.562 287.953 667.479 288.446 668.155 289.322C668.831 290.198 669.211 291.384 669.211 292.622C669.211 293.859 668.831 295.046 668.155 295.922C667.479 296.797 666.562 297.29 665.606 297.292H495.399C494.442 297.29 493.525 296.797 492.849 295.922C492.173 295.046 491.794 293.859 491.794 292.622C491.794 291.384 492.173 290.198 492.849 289.322C493.525 288.446 494.442 287.953 495.399 287.952H665.606Z" fill="white"/>
<path d="M665.606 314.684C666.562 314.686 667.479 315.179 668.155 316.054C668.831 316.93 669.211 318.117 669.211 319.354C669.211 320.592 668.831 321.779 668.155 322.654C667.479 323.53 666.562 324.023 665.606 324.025H592.365C591.891 324.025 591.42 323.905 590.982 323.671C590.543 323.437 590.145 323.093 589.809 322.659C589.473 322.225 589.206 321.71 589.025 321.143C588.843 320.576 588.749 319.968 588.749 319.354C588.749 318.74 588.843 318.133 589.025 317.566C589.206 316.998 589.473 316.483 589.809 316.05C590.145 315.616 590.543 315.272 590.982 315.038C591.42 314.803 591.891 314.683 592.365 314.684H665.606Z" fill="white"/>
<path d="M436.387 398.412C424.423 398.412 414.725 385.867 414.725 370.391C414.725 354.915 424.423 342.37 436.387 342.37C448.351 342.37 458.05 354.915 458.05 370.391C458.05 385.867 448.351 398.412 436.387 398.412Z" fill="#3F3D56"/>
<path d="M438.193 382.78L445.069 371.346L441.071 367.323L437.815 372.737L426.817 357.72L423.139 362.227L438.193 382.78Z" fill="white"/>
<path d="M472.137 82.3844L507.338 92.8044L522.211 56.5205L492.111 41.3202L472.137 82.3844Z" fill="#2F2E41"/>
<path d="M442.886 340.088L429.694 324.581L458.144 241.568L483.005 201.984L442.388 224.725L438.161 282.628L417.963 291.617L420.581 219.32C420.745 214.812 421.906 210.459 423.927 206.779C425.948 203.1 428.744 200.25 431.982 198.568L465.305 181.253L471.271 148.857L506.06 148.213C516.871 172.544 521.701 193.959 513.9 209.211L477.702 254.876L442.886 340.088Z" fill="#2F2E41"/>
<path d="M436.737 329.463C436.737 329.463 434.862 322.214 431.922 323.883C428.983 325.551 420.75 334.004 420.75 334.004C420.75 334.004 406.997 336.52 415.611 342.967C424.225 349.413 427.594 349.012 427.869 348.1C428.144 347.189 430.379 345.164 430.379 345.164L433.628 347.854L439.112 348.52C439.112 348.52 446.292 332.787 443.982 332.37C441.671 331.952 436.617 332.554 436.737 329.463Z" fill="#2F2E41"/>
<path d="M428.061 285.011C428.061 285.011 422.342 283.087 421.819 287.184C421.296 291.281 422.279 304.818 422.279 304.818C422.279 304.818 416.405 321.099 425.281 315.279C434.158 309.46 435.737 305.588 435.296 304.793C434.855 303.997 434.763 300.471 434.763 300.471L438.279 298.416L441.703 292.835C441.703 292.835 435.428 276.466 433.897 278.743C432.366 281.02 429.998 286.827 428.061 285.011Z" fill="#2F2E41"/>
<path d="M501.87 78.9948C494.828 78.9948 489.12 71.6107 489.12 62.5019C489.12 53.3931 494.828 46.0089 501.87 46.0089C508.912 46.0089 514.621 53.3931 514.621 62.5019C514.621 71.6107 508.912 78.9948 501.87 78.9948Z" fill="#FFB9B9"/>
<path d="M503.352 116.85L472.4 111.07C477.021 100.252 481.784 90.3936 488.186 91.4959C493.882 86.3396 494.21 78.0505 492.77 68.729L508.262 74.0859C506.899 79.832 507.426 84.8775 511.057 88.7731C505.984 98.0103 502.701 107.334 503.352 116.85Z" fill="#FFB9B9"/>
<path d="M505.691 151.96C494.693 170.483 483.414 177.801 471.288 151.324L470.288 139.509C462.507 126.815 464.786 115.847 474.275 106.114L478.851 92.1956L485.748 90.7574C484.84 92.1146 484.263 93.7895 484.09 95.5705C483.917 97.3516 484.156 99.1589 484.777 100.764C485.398 102.37 486.373 103.701 487.579 104.59C488.784 105.479 490.166 105.886 491.551 105.76L494.044 105.532C494.968 105.447 495.87 105.127 496.698 104.59C497.526 104.052 498.264 103.308 498.868 102.401L509.463 86.4937L513.927 88.0371C514.432 88.2121 514.884 88.5868 515.217 89.1092C515.55 89.6316 515.749 90.2756 515.786 90.9512L517.233 117.46C510.862 126.59 507.196 138.261 505.691 151.96Z" fill="#E6E6E6"/>
<path d="M510.614 140.675L534.973 134.277L518.794 114.805L524.952 100.401L551.101 136.378C551.55 137.039 551.85 137.847 551.969 138.713C552.088 139.58 552.021 140.472 551.775 141.292C551.53 142.113 551.114 142.83 550.575 143.367C550.036 143.903 549.393 144.238 548.717 144.335L513.303 149.408L511.85 157.698C511.657 158.801 511.261 159.827 510.696 160.69C510.132 161.554 509.415 162.228 508.606 162.657C507.797 163.087 506.921 163.257 506.05 163.156C505.179 163.054 504.34 162.683 503.604 162.074V162.074C502.923 161.509 502.347 160.756 501.919 159.868C501.491 158.98 501.221 157.979 501.129 156.939C501.037 155.9 501.126 154.846 501.388 153.856C501.651 152.866 502.08 151.964 502.646 151.216L510.614 140.675Z" fill="#FFB9B9"/>
<path d="M472.743 191.889L475.976 202.779C476.292 203.843 476.43 204.981 476.38 206.119C476.331 207.257 476.095 208.368 475.689 209.379C475.283 210.391 474.715 211.279 474.024 211.985C473.333 212.692 472.534 213.201 471.679 213.478V213.478C470.678 213.803 469.63 213.801 468.629 213.472C467.629 213.143 466.707 212.497 465.947 211.593C465.188 210.689 464.614 209.554 464.277 208.292C463.941 207.029 463.852 205.678 464.019 204.361L465.388 193.588L460.891 150.504L464.91 122.043L474.076 125.684L471.031 152.177L472.743 191.889Z" fill="#FFB9B9"/>
<path d="M476.201 128.723L462.343 121.732L470.067 99.8383C470.892 97.4993 472.194 95.4948 473.833 94.0396C475.472 92.5845 477.385 91.7335 479.37 91.578L482.923 91.2993L476.201 128.723Z" fill="#E6E6E6"/>
<path d="M521.853 119.791L507.077 113.32L512.287 90.3928C512.455 89.6506 512.823 89.0103 513.324 88.587C513.824 88.1637 514.425 87.9849 515.018 88.0828V88.0828C515.52 88.1656 515.991 88.4422 516.369 88.8764L531.464 106.199C528.576 112.348 525.502 112.502 521.853 119.791Z" fill="#E6E6E6"/>
<path d="M493.4 35.7253C493.4 35.7253 485.602 37.6226 483.799 50.2025C483.517 52.324 483.465 54.4861 483.646 56.626C483.826 59.0475 483.565 64.162 479.5 70.1842C476.848 74.0902 474.377 78.1957 472.099 82.4792V82.4792L480.247 85.285L483.888 67.8227C485.653 59.3566 488.372 51.2727 491.957 43.8312L492.032 43.6758C492.032 43.6758 494.738 53.0293 501.992 54.3116L499.755 50.5027C499.755 50.5027 508.235 56.8432 513.039 58.7801C513.587 59.0012 514.078 59.4117 514.459 59.9673C514.841 60.5228 515.097 61.2024 515.202 61.9328C515.307 62.6632 515.256 63.4167 515.054 64.1122C514.852 64.8077 514.508 65.4188 514.057 65.8797C514.023 65.9144 513.988 65.9491 513.953 65.9838C510.42 69.4554 503.211 77.7388 506.059 85.7519C508.907 93.765 505.586 95.2259 505.586 95.2259L511.71 92.2123L514.513 90.6598L514.23 93.3405L527.913 93.7113C527.913 93.7113 531.61 93.6822 525.042 80.9153C525.042 80.9153 523.457 76.1282 524.759 72.4711C525.803 69.7015 526.323 66.6503 526.275 63.5696C525.862 50.6981 521.67 24.5125 493.4 35.7253Z" fill="#2F2E41"/>
</g>
<defs>
<clipPath id="clip0">
<rect width="832" height="528" fill="white" transform="matrix(-1 0 0 1 832 0)"/>
</clipPath>
</defs>
</svg>
