<svg width="832" height="528" viewBox="0 0 832 528" fill="none" xmlns="http://www.w3.org/2000/svg">
<g clip-path="url(#clip0)">
<path d="M707.016 262.098C678.765 162.139 581.151 89.9822 466.572 87.0881C405.998 85.558 342.257 103.635 295.849 166.894C212.89 279.976 300.948 358.119 362.339 395.251C391.998 413.226 418.723 434.84 441.739 459.466C483.207 503.745 562.982 558.768 657.99 472.556C726.852 410.069 725.833 328.68 707.016 262.098Z" fill="#F2F2F2"/>
<path d="M0.103022 522.921C-5.66962 529.693 234.833 529.693 229.043 522.919C234.816 516.148 -5.68712 516.148 0.103022 522.921Z" fill="#DADADA"/>
<path d="M79.9314 325.251C67.2028 348.526 63.8405 480.989 63.0912 523.45C63.072 524.407 63.0528 525.314 63.0432 526.171H30.8232C30.4293 525.264 30.0642 524.369 29.7184 523.45C10.6207 474.689 21.2167 416.224 21.7738 413.266C20.3233 422.561 26.8844 449.501 34.3007 475.596C38.8253 395.36 77.5105 329.302 79.9314 325.251Z" fill="#DBDBDB"/>
<path d="M696 66C721.224 112.123 727.887 374.627 729.372 458.771C729.41 460.667 729.448 462.464 729.467 464.163H793.318C794.099 462.366 794.822 460.593 795.507 458.771C833.353 362.142 812.355 246.28 811.251 240.42C814.126 258.839 801.123 312.226 786.427 363.939C777.46 204.935 700.797 74.0278 696 66Z" fill="#E3E3E3"/>
<path d="M388.517 461.786C377.34 478.464 843.012 478.464 831.801 461.782C842.978 445.108 377.306 445.108 388.517 461.786Z" fill="#E6E6E6"/>
<path d="M148.048 452.443C149.838 452.443 149.874 459.653 148.048 459.653H81.1845C80.4012 459.686 79.7558 458.098 79.7429 456.107C79.7282 454.075 80.3852 452.406 81.1845 452.443H148.048Z" fill="#3F3D56"/>
<path d="M126.935 425.587C129.258 425.587 129.271 432.798 126.934 432.797H102.32C101.312 432.83 100.481 431.243 100.465 429.251C100.446 427.219 101.291 425.55 102.32 425.587H126.935Z" fill="#00BFA6"/>
<path d="M148.048 480.293C149.838 480.293 149.874 487.504 148.048 487.503H81.1845C80.4012 487.536 79.7558 485.949 79.7429 483.958C79.7282 481.925 80.3852 480.256 81.1845 480.293H148.048Z" fill="#3F3D56"/>
<path d="M66.8982 389.904H162.248C163.267 389.904 164.245 390.428 164.966 391.361C165.687 392.293 166.092 393.558 166.093 394.877V518.214C166.092 519.532 165.687 520.797 164.966 521.73C164.245 522.662 163.267 523.186 162.248 523.187H66.8982C65.8786 523.186 64.9009 522.662 64.1799 521.73C63.459 520.797 63.0538 519.532 63.0535 518.214V394.877C63.0538 393.558 63.459 392.293 64.1799 391.361C64.9009 390.428 65.8786 389.904 66.8982 389.904V389.904ZM64.5914 518.214C64.5932 519.004 64.8367 519.762 65.269 520.321C65.7012 520.88 66.2869 521.195 66.8982 521.198H162.248C162.859 521.195 163.445 520.88 163.877 520.321C164.309 519.762 164.553 519.004 164.555 518.214V394.877C164.553 394.086 164.309 393.329 163.877 392.769C163.445 392.21 162.859 391.895 162.248 391.893H66.8982C66.2869 391.895 65.7012 392.21 65.269 392.769C64.8367 393.329 64.5931 394.086 64.5914 394.877V518.214Z" fill="#3F3D56"/>
<path d="M198.579 292.002L190.844 286.999L197.29 264.486L198.989 253.133C199.209 251.658 199.725 250.284 200.485 249.147C201.245 248.011 202.223 247.153 203.319 246.658C204.416 246.164 205.594 246.05 206.735 246.329C207.877 246.607 208.941 247.268 209.823 248.246V248.246C211.13 249.695 211.951 251.744 212.112 253.961C212.273 256.177 211.762 258.388 210.687 260.127L204.38 270.323L198.579 292.002Z" fill="#A0616A"/>
<path d="M201.16 289.501L199.733 295.277L193.331 321.225C192.704 323.768 191.523 326.024 189.93 327.722C188.337 329.419 186.399 330.486 184.348 330.794C182.298 331.102 180.223 330.638 178.371 329.459C176.519 328.279 174.97 326.433 173.909 324.143L153.154 278.128C152.822 277.411 152.538 276.658 152.307 275.878C151.304 272.473 151.354 268.698 152.446 265.34C153.539 261.981 155.59 259.296 158.173 257.842C160.756 256.389 163.673 256.279 166.318 257.535C168.962 258.791 171.13 261.317 172.372 264.588L185.044 299.508L190.843 282.832L201.16 289.501Z" fill="#E6E6E6"/>
<path d="M198.172 457.112L183.991 458.78L176.256 386.238C150.758 391.787 126.703 393.564 105.896 386.852C104.138 386.292 102.488 385.269 101.05 383.845C99.6122 382.422 98.4174 380.63 97.5406 378.58C96.6638 376.531 96.124 374.27 95.9551 371.938C95.7861 369.606 95.9917 367.254 96.5589 365.03C99.049 355.417 103.436 345.115 108.572 334.541L142.736 350.384L144.025 357.054L180.466 351.088C182.306 350.786 184.174 350.983 185.953 351.666C187.731 352.349 189.38 353.503 190.795 355.055C192.209 356.607 193.359 358.522 194.171 360.679C194.983 362.837 195.439 365.189 195.51 367.587L198.172 457.112Z" fill="#2F2E41"/>
<path d="M213.616 471.169C213.753 469.928 213.611 468.662 213.209 467.522C212.807 466.382 212.161 465.414 211.347 464.734L196.789 455.493L185.814 457.286L183.222 469.306C183.112 470.162 183.139 471.038 183.299 471.881C183.46 472.724 183.751 473.516 184.156 474.208C184.561 474.901 185.07 475.479 185.653 475.909C186.236 476.339 186.881 476.61 187.548 476.707L208.028 476.765C209.339 476.956 210.656 476.478 211.7 475.433C212.743 474.388 213.431 472.859 213.616 471.169V471.169Z" fill="#2F2E41"/>
<path d="M201.754 447.837L187.573 449.505L179.838 376.963C154.34 382.512 130.285 384.289 109.478 377.577C107.72 377.018 106.07 375.994 104.632 374.571C103.194 373.147 102 371.355 101.123 369.305C100.246 367.256 99.7063 364.995 99.5373 362.663C99.3684 360.331 99.574 357.979 100.141 355.755C102.631 346.142 107.018 335.84 112.154 325.266L146.318 341.109L147.607 347.779L184.048 341.813C185.888 341.511 187.757 341.709 189.535 342.392C191.313 343.075 192.962 344.228 194.377 345.78C195.792 347.332 196.941 349.247 197.753 351.404C198.565 353.562 199.021 355.914 199.092 358.312L201.754 447.837Z" fill="#2F2E41"/>
<path d="M217.198 461.894C217.335 460.653 217.193 459.387 216.791 458.247C216.389 457.107 215.743 456.139 214.929 455.459L200.371 446.218L189.396 448.011L186.804 460.03C186.695 460.887 186.721 461.763 186.881 462.606C187.042 463.449 187.333 464.241 187.738 464.933C188.143 465.626 188.652 466.204 189.236 466.634C189.819 467.063 190.463 467.335 191.13 467.432L211.61 467.49C212.921 467.681 214.238 467.203 215.282 466.158C216.325 465.113 217.013 463.583 217.198 461.894Z" fill="#2F2E41"/>
<path d="M175.97 249.389C166.358 249.389 158.566 239.309 158.566 226.876C158.566 214.442 166.358 204.363 175.97 204.363C185.582 204.363 193.374 214.442 193.374 226.876C193.374 239.309 185.582 249.389 175.97 249.389Z" fill="#A0616A"/>
<path d="M175.325 272.736L155.342 269.4L163.078 238.549H182.416L175.325 272.736Z" fill="#A0616A"/>
<path d="M180.763 303.844C179.75 307.485 178.281 310.886 176.414 313.911C173.754 318.134 170.557 321.742 166.961 324.578C166.335 325.103 165.685 325.606 165.013 326.101L161.174 330.332L147.609 345.275L110.221 326.933C118.468 303.229 128.756 284.49 140.546 269.397C142.995 264.749 146.487 261.185 150.55 259.184C154.614 257.183 159.054 256.841 163.273 258.204L177.261 262.728C182.237 277.918 184.086 291.886 180.763 303.844Z" fill="#E6E6E6"/>
<path d="M211.219 238.973C211.437 238.695 211.723 238.522 212.028 238.483C212.333 238.444 212.639 238.542 212.894 238.76C213.237 239.227 224.434 247.809 223.732 248.661C223.753 248.919 223.728 249.18 223.661 249.425C223.594 249.669 223.485 249.891 223.342 250.074L197.32 283.589C197.193 283.752 197.043 283.881 196.878 283.968C196.712 284.055 196.535 284.099 196.357 284.096C195.833 284.962 187.304 272.389 186.874 272.148C186.627 271.817 186.492 271.373 186.497 270.913C186.502 270.453 186.648 270.015 186.901 269.692L211.219 238.973Z" fill="#3F3D56"/>
<path d="M221.111 248.303L220.052 247.43C220.158 247.687 220.195 247.983 220.156 248.27C220.118 248.557 220.007 248.819 219.84 249.016C219.674 249.212 219.462 249.331 219.237 249.354C219.013 249.377 218.789 249.303 218.6 249.143L211.748 243.049C211.594 242.909 211.474 242.717 211.4 242.493C211.326 242.27 211.302 242.024 211.329 241.784C211.357 241.543 211.436 241.318 211.557 241.132C211.677 240.946 211.836 240.807 212.014 240.73C211.743 240.611 211.304 239.898 211.01 240.347L187.957 269.652C187.136 270.169 196.333 280.479 196.338 280.884C197.025 281.873 220.671 249.063 221.174 249.04C221.213 248.99 221.242 248.929 221.261 248.861C221.279 248.794 221.285 248.723 221.279 248.652C221.273 248.581 221.255 248.513 221.226 248.453C221.197 248.393 221.158 248.341 221.111 248.303V248.303Z" fill="white"/>
<path d="M194.504 263.181L201.576 271.806L218.398 250.309L209.861 243.121L194.504 263.181Z" fill="#00BFA6"/>
<path d="M217.744 255.614C217.342 255.233 219.137 253.542 219.215 253.264C219.261 253.206 219.323 253.174 219.388 253.174C219.452 253.174 219.514 253.206 219.561 253.264C219.963 253.644 218.167 255.336 218.09 255.614C218.043 255.672 217.981 255.704 217.917 255.704C217.852 255.704 217.79 255.672 217.744 255.614V255.614Z" fill="#E6E6E6"/>
<path d="M215.266 258.372C215.487 258.266 216.783 255.954 217.083 256.469C217.485 256.849 215.689 258.541 215.612 258.819C215.391 259.113 215.038 258.658 215.266 258.372Z" fill="#E6E6E6"/>
<path d="M196.32 270.584C196.351 273.357 192.984 273.357 193.016 270.584C192.985 267.812 196.352 267.812 196.32 270.584Z" fill="#00BFA6"/>
<path opacity="0.2" d="M176.414 313.911C173.754 318.134 170.557 321.742 166.962 324.578C166.335 325.103 165.686 325.606 165.013 326.101L161.174 330.332C153.554 317.376 153.983 278.016 153.983 278.016L165.581 279.516L176.414 313.911Z" fill="black"/>
<path d="M199.176 303.587L191.441 298.584L197.887 276.071L199.586 264.718C199.806 263.243 200.322 261.868 201.082 260.732C201.842 259.596 202.819 258.738 203.916 258.243C205.013 257.748 206.191 257.635 207.332 257.913C208.474 258.192 209.538 258.853 210.42 259.831V259.831C211.727 261.28 212.548 263.329 212.709 265.546C212.87 267.762 212.359 269.973 211.283 271.712L204.977 281.908L199.176 303.587Z" fill="#A0616A"/>
<path d="M191.441 294.415L201.754 301.086L193.927 332.809C193.365 335.087 192.358 337.139 191.002 338.765C189.647 340.391 187.99 341.536 186.191 342.09V342.09C183.974 342.773 181.646 342.525 179.545 341.381C177.444 340.238 175.679 338.258 174.506 335.73L153.751 289.712C152.281 286.542 151.827 282.752 152.486 279.154C153.146 275.556 154.868 272.435 157.283 270.456V270.456C158.582 269.392 160.039 268.693 161.561 268.406C163.082 268.119 164.633 268.249 166.113 268.789C167.593 269.328 168.969 270.265 170.15 271.537C171.332 272.81 172.293 274.39 172.971 276.175L185.639 311.091L191.441 294.415Z" fill="#E6E6E6"/>
<path d="M182.521 218.107C183.939 219.637 185.54 220.859 187.261 221.726C188.124 222.151 189.049 222.327 189.971 222.241C190.893 222.156 191.789 221.811 192.596 221.23C193.482 220.407 194.18 219.292 194.618 218C195.056 216.709 195.218 215.289 195.087 213.889C194.792 211.087 193.922 208.44 192.567 206.221C190.231 202.018 187.159 198.589 183.603 196.214C180.047 193.84 176.107 192.587 172.105 192.559C168.103 192.53 164.152 193.726 160.576 196.05C156.999 198.373 153.898 201.758 151.526 205.927C149.797 208.719 148.734 212.101 148.467 215.662C148.218 221.916 151.526 227.754 151.173 234C150.873 239.283 147.942 243.808 144.47 246.617C140.998 249.426 136.986 250.85 133.105 252.537C129.223 254.224 125.297 256.305 122.424 260.08C119.551 263.854 117.967 269.711 119.544 274.6C120.84 278.616 123.919 281.171 127.007 282.901C135.286 287.487 144.586 287.938 153.108 284.168C156.25 282.759 159.68 279.94 159.728 275.64C159.749 273.773 159.099 272.02 158.709 270.223C158.319 268.426 158.247 266.282 159.225 264.909C160.438 263.207 162.68 263.599 164.129 264.957C165.579 266.314 166.522 268.374 167.718 270.096C169.989 273.366 173.432 275.455 176.797 274.839C180.162 274.223 183.204 270.516 183.343 266.123C183.582 258.578 176.274 253.853 175.479 246.372C174.949 241.375 177.464 236.804 179.643 232.621C181.822 228.439 183.849 223.199 182.324 218.557" fill="#2F2E41"/>
<path d="M425.048 458.638H712.22C713.63 458.636 714.982 457.911 715.979 456.621C716.976 455.331 717.537 453.583 717.538 451.759V134.108C717.537 132.284 716.976 130.536 715.979 129.246C714.982 127.957 713.63 127.231 712.22 127.229H425.048C423.639 127.231 422.287 127.957 421.29 129.246C420.293 130.536 419.732 132.284 419.73 134.108V451.759C419.732 453.583 420.293 455.331 421.29 456.621C422.287 457.911 423.639 458.636 425.048 458.638V458.638ZM712.22 129.981C713.066 129.982 713.877 130.417 714.476 131.191C715.074 131.965 715.41 133.014 715.411 134.108V451.759C715.41 452.853 715.074 453.903 714.476 454.676C713.877 455.45 713.066 455.885 712.22 455.887H425.048C424.202 455.885 423.391 455.45 422.793 454.676C422.195 453.903 421.859 452.853 421.858 451.759V134.108C421.859 133.014 422.195 131.965 422.793 131.191C423.391 130.417 424.202 129.982 425.048 129.981H712.22Z" fill="white"/>
<path d="M667.6 430.173C655.636 430.173 645.937 417.627 645.937 402.151C645.937 386.676 655.636 374.13 667.6 374.13C679.563 374.13 689.262 386.676 689.262 402.151C689.262 417.627 679.563 430.173 667.6 430.173Z" fill="#DDDDDD"/>
<path d="M617.569 383.471C618.526 383.473 619.443 383.965 620.118 384.841C620.794 385.717 621.174 386.903 621.174 388.141C621.174 389.378 620.794 390.565 620.118 391.441C619.443 392.316 618.526 392.809 617.569 392.811H447.362C446.405 392.811 445.486 392.319 444.809 391.443C444.132 390.567 443.752 389.38 443.752 388.141C443.752 386.902 444.132 385.714 444.809 384.839C445.486 383.963 446.405 383.471 447.362 383.471H617.569Z" fill="#DDDDDD"/>
<path d="M617.569 411.492C618.527 411.492 619.445 411.984 620.122 412.86C620.799 413.736 621.179 414.924 621.179 416.162C621.179 417.401 620.799 418.589 620.122 419.465C619.445 420.341 618.527 420.833 617.569 420.833H544.329C543.854 420.833 543.384 420.713 542.945 420.479C542.507 420.245 542.108 419.901 541.772 419.467C541.436 419.033 541.17 418.518 540.988 417.951C540.806 417.384 540.713 416.776 540.713 416.162C540.713 415.548 540.806 414.941 540.988 414.374C541.17 413.806 541.436 413.291 541.772 412.858C542.108 412.424 542.507 412.08 542.945 411.846C543.384 411.611 543.854 411.491 544.329 411.492H617.569Z" fill="#DDDDDD"/>
<path d="M356.82 347.845H643.992C645.402 347.843 646.753 347.118 647.75 345.828C648.747 344.538 649.308 342.79 649.31 340.966V177.948C649.308 176.125 648.747 174.376 647.75 173.087C646.753 171.797 645.402 171.071 643.992 171.069H356.82C355.41 171.071 354.058 171.797 353.061 173.087C352.064 174.376 351.503 176.125 351.502 177.948V340.966C351.503 342.79 352.064 344.538 353.061 345.828C354.058 347.118 355.41 347.843 356.82 347.845Z" fill="#FF6585"/>
<path d="M585.509 227.89C586.466 227.892 587.383 228.385 588.059 229.261C588.735 230.136 589.115 231.323 589.115 232.561C589.115 233.798 588.735 234.985 588.059 235.861C587.383 236.736 586.466 237.229 585.509 237.231H415.303C414.346 237.229 413.429 236.736 412.753 235.861C412.077 234.985 411.697 233.798 411.697 232.561C411.697 231.323 412.077 230.136 412.753 229.261C413.429 228.385 414.346 227.892 415.303 227.89H585.509Z" fill="white"/>
<path d="M585.509 254.951C586.466 254.953 587.383 255.446 588.059 256.322C588.735 257.197 589.115 258.384 589.115 259.622C589.115 260.859 588.735 262.046 588.059 262.922C587.383 263.797 586.466 264.29 585.509 264.292H415.303C414.346 264.29 413.429 263.797 412.753 262.922C412.077 262.046 411.697 260.859 411.697 259.622C411.697 258.384 412.077 257.197 412.753 256.322C413.429 255.446 414.346 254.953 415.303 254.951H585.509Z" fill="white"/>
<path d="M585.509 281.684C586.466 281.686 587.383 282.179 588.059 283.054C588.735 283.93 589.115 285.117 589.115 286.354C589.115 287.592 588.735 288.778 588.059 289.654C587.383 290.53 586.466 291.023 585.509 291.024H512.269C511.794 291.025 511.324 290.905 510.886 290.671C510.447 290.437 510.048 290.093 509.713 289.659C509.377 289.225 509.11 288.71 508.929 288.143C508.747 287.576 508.653 286.968 508.653 286.354C508.653 285.74 508.747 285.132 508.929 284.565C509.11 283.998 509.377 283.483 509.713 283.049C510.048 282.616 510.447 282.272 510.886 282.038C511.324 281.803 511.794 281.683 512.269 281.684H585.509Z" fill="white"/>
<path d="M356.291 365.412C344.327 365.412 334.628 352.866 334.628 337.391C334.628 321.915 344.327 309.369 356.291 309.369C368.255 309.369 377.954 321.915 377.954 337.391C377.954 352.866 368.255 365.412 356.291 365.412Z" fill="#3F3D56"/>
<path d="M358.097 349.78L364.973 338.346L360.974 334.323L357.719 339.737L346.721 324.72L343.043 329.227L358.097 349.78Z" fill="white"/>
<path d="M392.041 49.3843L427.241 59.8043L442.114 23.5203L412.015 8.32007L392.041 49.3843Z" fill="#2F2E41"/>
<path d="M362.789 307.087L349.597 291.581L378.048 208.568L402.909 168.984L362.291 191.725L358.065 249.628L337.867 258.617L340.485 186.32C340.648 181.811 341.81 177.459 343.831 173.779C345.852 170.1 348.648 167.25 351.886 165.567L385.209 148.253L391.175 115.857L425.964 115.213C436.775 139.544 441.605 160.959 433.804 176.211L397.605 221.876L362.789 307.087Z" fill="#2F2E41"/>
<path d="M356.64 296.463C356.64 296.463 354.766 289.214 351.826 290.883C348.887 292.551 340.653 301.004 340.653 301.004C340.653 301.004 326.901 303.52 335.514 309.967C344.128 316.413 347.498 316.012 347.773 315.1C348.048 314.188 350.282 312.164 350.282 312.164L353.532 314.854L359.016 315.52C359.016 315.52 366.196 299.786 363.885 299.369C361.575 298.952 356.521 299.554 356.64 296.463Z" fill="#2F2E41"/>
<path d="M347.965 252.01C347.965 252.01 342.245 250.087 341.722 254.184C341.199 258.281 342.182 271.818 342.182 271.818C342.182 271.818 336.308 288.099 345.185 282.279C354.062 276.46 355.64 272.588 355.2 271.793C354.759 270.997 354.667 267.47 354.667 267.47L358.183 265.416L361.607 259.834C361.607 259.834 355.332 243.466 353.801 245.743C352.27 248.02 349.902 253.827 347.965 252.01Z" fill="#2F2E41"/>
<path d="M421.774 45.9947C414.732 45.9947 409.024 38.6106 409.024 29.5018C409.024 20.3929 414.732 13.0088 421.774 13.0088C428.816 13.0088 434.525 20.3929 434.525 29.5018C434.525 38.6106 428.816 45.9947 421.774 45.9947Z" fill="#FFB9B9"/>
<path d="M423.255 83.8496L392.304 78.0699C396.924 67.2525 401.688 57.3936 408.09 58.4959C413.786 53.3396 414.114 45.0505 412.674 35.729L428.166 41.0859C426.803 46.832 427.33 51.8775 430.96 55.7731C425.888 65.0103 422.605 74.3345 423.255 83.8496Z" fill="#FFB9B9"/>
<path d="M425.594 118.96C414.597 137.483 403.318 144.801 391.192 118.324L390.192 106.509C382.411 93.8153 384.689 82.8466 394.178 73.1142L398.755 59.1955L405.652 57.7572C404.743 59.1144 404.166 60.7893 403.994 62.5704C403.821 64.3515 404.06 66.1588 404.681 67.7641C405.302 69.3694 406.277 70.7007 407.482 71.5898C408.688 72.4788 410.07 72.8859 411.454 72.7594L413.948 72.5316C414.872 72.4472 415.774 72.1271 416.602 71.5897C417.43 71.0522 418.167 70.3082 418.772 69.4004L429.367 53.4935L433.83 55.037C434.336 55.2119 434.787 55.5867 435.121 56.1091C435.454 56.6315 435.653 57.2754 435.69 57.9511L437.137 84.4599C430.766 93.5902 427.1 105.261 425.594 118.96Z" fill="#E6E6E6"/>
<path d="M430.518 107.675L454.876 101.277L438.698 81.8052L444.855 67.4012L471.005 103.378C471.454 104.039 471.754 104.847 471.873 105.713C471.992 106.579 471.925 107.471 471.679 108.292C471.433 109.112 471.018 109.83 470.479 110.366C469.94 110.903 469.297 111.238 468.621 111.335L433.207 116.408L431.754 124.698C431.56 125.801 431.165 126.827 430.6 127.69C430.035 128.553 429.318 129.228 428.51 129.657C427.701 130.086 426.824 130.257 425.953 130.156C425.083 130.054 424.244 129.683 423.508 129.073V129.073C422.826 128.509 422.25 127.756 421.822 126.868C421.394 125.98 421.124 124.979 421.033 123.939C420.941 122.899 421.029 121.846 421.292 120.856C421.554 119.866 421.984 118.964 422.549 118.216L430.518 107.675Z" fill="#FFB9B9"/>
<path d="M392.647 158.889L395.88 169.779C396.196 170.843 396.333 171.981 396.284 173.119C396.234 174.257 395.999 175.368 395.593 176.379C395.187 177.391 394.619 178.279 393.928 178.985C393.237 179.692 392.437 180.201 391.583 180.478V180.478C390.582 180.803 389.533 180.801 388.533 180.472C387.532 180.143 386.611 179.497 385.851 178.593C385.091 177.689 384.518 176.554 384.181 175.292C383.844 174.029 383.756 172.678 383.923 171.361L385.292 160.588L380.794 117.504L384.814 89.0435L393.98 92.6844L390.934 119.177L392.647 158.889Z" fill="#FFB9B9"/>
<path d="M396.105 95.7232L382.247 88.7316L389.971 66.8382C390.796 64.4992 392.098 62.4947 393.737 61.0395C395.375 59.5843 397.289 58.7334 399.273 58.5778L402.827 58.2992L396.105 95.7232Z" fill="#E6E6E6"/>
<path d="M441.757 86.7908L426.981 80.3199L432.191 57.3927C432.359 56.6504 432.727 56.0102 433.228 55.5869C433.728 55.1635 434.329 54.9848 434.922 55.0827V55.0827C435.424 55.1655 435.895 55.4421 436.273 55.8763L451.368 73.1986C448.48 79.3478 445.406 79.5021 441.757 86.7908Z" fill="#E6E6E6"/>
<path d="M413.304 2.72516C413.304 2.72516 405.506 4.62246 403.703 17.2024C403.421 19.3239 403.369 21.486 403.55 23.6258C403.73 26.0474 403.469 31.1619 399.404 37.1841C396.752 41.0901 394.28 45.1956 392.003 49.4791V49.4791L400.151 52.2849L403.791 34.8226C405.556 26.3564 408.276 18.2726 411.861 10.8311L411.936 10.6757C411.936 10.6757 414.642 20.0292 421.896 21.3114L419.659 17.5026C419.659 17.5026 428.138 23.843 432.942 25.7799C433.491 26.0011 433.982 26.4116 434.363 26.9671C434.744 27.5227 435.001 28.2023 435.106 28.9327C435.211 29.6631 435.16 30.4166 434.958 31.1121C434.756 31.8076 434.411 32.4187 433.961 32.8796C433.927 32.9143 433.892 32.949 433.857 32.9837C430.323 36.4552 423.115 44.7386 425.963 52.7517C428.811 60.7648 425.49 62.2258 425.49 62.2258L431.614 59.2122L434.416 57.6596L434.133 60.3404L447.816 60.7112C447.816 60.7112 451.514 60.6821 444.946 47.9152C444.946 47.9152 443.361 43.1281 444.662 39.471C445.707 36.7014 446.226 33.6502 446.179 30.5694C445.765 17.698 441.574 -8.48767 413.304 2.72516Z" fill="#2F2E41"/>
</g>
<defs>
<clipPath id="clip0">
<rect width="832" height="528" fill="white" transform="matrix(-1 0 0 1 832 0)"/>
</clipPath>
</defs>
</svg>
