<svg width="772" height="524" viewBox="0 0 772 524" fill="none" xmlns="http://www.w3.org/2000/svg">
<g clip-path="url(#clip0)">
<path d="M596.858 206.935C565.506 88.8008 457.175 3.52446 330.017 0.104098C262.793 -1.70414 192.054 19.6599 140.551 94.4207C48.4832 228.064 146.208 320.415 214.34 364.298C247.256 385.542 276.914 411.086 302.457 440.19C348.478 492.52 437.011 557.547 542.45 455.659C618.872 381.811 617.742 285.624 596.858 206.935Z" fill="#F2F2F2"/>
<path d="M386 524C599.182 524 772 514.417 772 502.597C772 490.776 599.182 481.193 386 481.193C172.818 481.193 0 490.776 0 502.597C0 514.417 172.818 524 386 524Z" fill="#3F3D56"/>
<path opacity="0.1" d="M138.904 508.616C184.008 508.616 220.571 504.424 220.571 499.252C220.571 494.081 184.008 489.888 138.904 489.888C93.8005 489.888 57.2368 494.081 57.2368 499.252C57.2368 504.424 93.8005 508.616 138.904 508.616Z" fill="black"/>
<path opacity="0.1" d="M626.814 512.629C671.917 512.629 708.481 508.437 708.481 503.265C708.481 498.094 671.917 493.901 626.814 493.901C581.71 493.901 545.146 498.094 545.146 503.265C545.146 508.437 581.71 512.629 626.814 512.629Z" fill="black"/>
<path d="M494.256 94.8034C455.244 81.5743 416.741 81.0393 386 102.422C355.26 81.0393 316.757 81.5743 277.745 94.8034C215.346 115.963 175.276 161.586 205.388 243.121C233.435 319.063 366.601 381.016 384.739 389.158C385.047 389.757 385.21 390.067 385.21 390.067C385.21 390.067 385.484 389.948 386 389.72C386.516 389.948 386.791 390.067 386.791 390.067C386.791 390.067 386.954 389.757 387.261 389.158C405.399 381.016 538.565 319.063 566.612 243.121C596.724 161.586 556.654 115.963 494.256 94.8034Z" fill="#39BCAC"/>
<path d="M429.975 237.73L393.951 303.377L392.251 260.443L408.336 219.671L391.89 251.345L389.593 193.326L411.128 138.74L389.11 181.144L386 102.622L380.845 232.773L333.649 146.766L380.572 239.688L377.908 306.936L339.931 237.73L377.687 312.501L372.04 455.108H399.96L394.16 308.656L429.975 237.73Z" fill="#3F3D56"/>
<path opacity="0.1" d="M520.018 475.331C520.018 516.929 459.507 504.062 385.417 504.062C311.327 504.062 251.715 516.929 251.715 475.331C251.715 433.732 312.218 424.685 386.307 424.685C460.397 424.685 520.018 433.732 520.018 475.331Z" fill="black"/>
<path d="M520.018 465.088C520.018 506.687 459.507 493.82 385.417 493.82C311.327 493.82 251.715 506.687 251.715 465.088C251.715 423.49 312.218 414.442 386.307 414.442C460.397 414.442 520.018 423.49 520.018 465.088Z" fill="#1E1C35"/>
<path d="M214.817 341.978C214.817 341.978 204.86 364.041 214.817 364.638C224.774 365.234 225.396 341.978 225.396 341.978H214.817Z" fill="#FFB9B9"/>
<path d="M140.14 333.63L157.564 412.94L166.899 452.297H189.925L165.032 331.244L140.14 333.63Z" fill="#2F2E41"/>
<path opacity="0.1" d="M140.14 333.63L157.564 412.94L166.899 452.297H189.925L165.032 331.244L140.14 333.63Z" fill="black"/>
<path d="M166.899 453.49V463.031L179.968 465.416L181.212 455.875L166.899 453.49Z" fill="#FFB9B9"/>
<path d="M182.457 462.434L165.032 461.241C165.032 461.241 160.054 482.112 160.054 483.901C160.054 485.69 148.23 503.58 156.32 504.773C164.41 505.965 176.234 507.158 177.478 503.58C178.723 500.002 178.723 489.865 181.212 485.69C183.701 481.516 186.191 476.746 185.568 474.36L182.457 462.434Z" fill="#2F2E41"/>
<path d="M170.011 336.015C170.011 336.015 151.341 371.794 156.32 400.417C161.298 429.04 161.298 455.875 162.543 457.067C163.787 458.26 187.435 460.049 187.435 460.049C187.435 460.049 188.058 405.784 186.191 399.821C184.324 393.858 196.77 361.06 201.749 352.712C206.727 344.363 170.011 336.015 170.011 336.015Z" fill="#2F2E41"/>
<path d="M147.607 207.209C147.607 207.209 120.848 201.843 124.582 215.558C128.316 229.273 143.251 232.851 143.251 232.851L147.607 207.209Z" fill="#FF6584"/>
<path d="M153.831 276.979C153.831 276.979 140.762 281.153 140.762 302.621C140.762 324.088 134.539 340.189 140.762 340.785C146.985 341.381 183.079 341.978 183.079 341.978L153.831 276.979Z" fill="#FF6584"/>
<path d="M157.564 216.75L173.745 204.824L196.148 212.576L211.083 209.595L220.418 222.714L200.504 237.025L173.745 244.777L156.32 232.851L157.564 216.75Z" fill="#FF6584"/>
<path d="M178.723 192.897C178.723 192.897 179.345 203.035 176.234 204.824C173.122 206.613 204.86 210.787 204.86 210.787L207.349 194.686L178.723 192.897Z" fill="#FFB9B9"/>
<path opacity="0.1" d="M178.723 192.897C178.723 192.897 179.345 203.035 176.234 204.824C173.122 206.613 204.86 210.787 204.86 210.787L207.349 194.686L178.723 192.897Z" fill="black"/>
<path d="M195.526 204.824C207.555 204.824 217.307 195.48 217.307 183.953C217.307 172.426 207.555 163.082 195.526 163.082C183.496 163.082 173.745 172.426 173.745 183.953C173.745 195.48 183.496 204.824 195.526 204.824Z" fill="#FFB9B9"/>
<path d="M216.062 222.714L224.463 223.012C224.463 223.012 231.62 222.714 232.864 253.722C234.109 284.731 232.864 328.262 232.864 328.262C232.864 328.262 236.598 350.326 226.641 349.133C216.684 347.941 206.727 348.537 211.083 344.959C215.44 341.381 217.306 321.106 217.306 321.106L207.349 248.355L216.062 222.714Z" fill="#FF6584"/>
<path d="M173.745 205.953C173.745 205.953 150.097 204.228 146.363 206.017C142.629 207.806 139.517 225.099 139.517 225.099L138.895 238.814C138.895 238.814 143.003 267.444 147.794 268.335C152.586 269.227 151.964 273.997 149.474 275.786C146.985 277.575 169.388 368.812 176.234 369.408C183.079 370.005 190.547 361.656 190.547 361.656C190.547 361.656 204.238 358.674 207.35 356.289C210.461 353.904 214.195 285.327 208.594 284.135C208.594 284.135 202.371 282.942 202.993 281.153C203.616 279.364 211.482 275.95 211.482 275.95L208.594 248.355C208.594 248.355 212.95 225.099 224.152 222.714C224.152 222.714 219.173 216.75 217.307 216.75C215.44 216.75 203.616 219.136 199.882 222.714C196.148 226.292 192.414 237.622 183.702 232.851C174.989 228.081 168.144 220.328 170.011 216.75C171.878 213.173 173.745 205.953 173.745 205.953Z" fill="#3F3D56"/>
<path d="M132.619 159.864C135.016 161.778 137.439 163.718 139.128 166.009C141.333 169.001 142.174 172.446 142.469 175.848C142.718 178.712 142.54 181.755 140.472 184.182C138.979 185.934 136.578 187.263 135.581 189.199C134.48 191.337 135.345 193.769 136.761 195.802C138.177 197.836 140.126 199.656 141.385 201.745C142.296 203.222 142.829 204.884 142.941 206.596C143.053 208.308 142.742 210.021 142.031 211.596C140.705 214.534 137.983 217.404 138.851 220.434C139.556 222.892 142.554 225.35 140.941 227.56C140.042 228.792 138.003 229.304 136.119 229.422C131.513 229.71 126.77 228.177 123.923 225.478C121.105 222.807 119.715 218.912 115.42 217.742C113.844 217.313 112.093 217.343 110.513 216.921C109.051 216.526 107.747 215.719 106.77 214.605C105.792 213.491 105.187 212.122 105.033 210.674C104.549 206.343 107.405 202.197 110.717 198.61C113.11 196.027 115.717 193.633 118.511 191.452C122.462 188.358 126.981 185.468 129.254 181.556C131.865 177.063 130.949 171.551 126.947 167.662C125.464 166.221 123.6 164.994 122.33 163.445C120.8 161.582 118.137 154.915 121.299 153.334C124.754 151.606 130.696 158.329 132.619 159.864Z" fill="#3F3D56"/>
<path d="M99.0669 432.618L92.8438 471.379C92.8438 471.379 103.423 495.828 112.758 495.828C122.092 495.828 127.693 494.635 127.693 493.443C127.693 492.25 121.47 485.094 118.359 483.902C115.247 482.709 112.135 469.59 112.135 466.012C112.135 462.434 115.247 432.618 115.247 432.618H99.0669Z" fill="#A0616A"/>
<path opacity="0.1" d="M99.0669 432.618L92.8438 471.379C92.8438 471.379 103.423 495.828 112.758 495.828C122.092 495.828 127.693 494.635 127.693 493.443C127.693 492.25 121.47 485.094 118.359 483.902C115.247 482.709 112.135 469.59 112.135 466.012C112.135 462.434 115.247 432.618 115.247 432.618H99.0669Z" fill="black"/>
<path d="M114.625 469.59C114.625 469.59 94.7109 466.608 92.8439 465.416C90.977 464.223 84.7539 488.672 94.7109 495.828C104.668 502.984 111.513 501.791 113.38 501.791C115.247 501.791 124.582 501.791 126.449 500.599C128.316 499.406 129.56 492.25 127.693 489.268C125.827 486.287 118.359 483.305 117.736 480.324C117.114 477.342 114.625 469.59 114.625 469.59Z" fill="#2F2E41"/>
<path opacity="0.1" d="M114.625 469.59C114.625 469.59 94.7109 466.608 92.8439 465.416C90.977 464.223 84.7539 488.672 94.7109 495.828C104.668 502.984 111.513 501.791 113.38 501.791C115.247 501.791 124.582 501.791 126.449 500.599C128.316 499.406 129.56 492.25 127.693 489.268C125.827 486.287 118.359 483.305 117.736 480.324C117.114 477.342 114.625 469.59 114.625 469.59Z" fill="black"/>
<path d="M84.7537 434.407C84.7537 434.407 85.376 458.856 74.7967 462.434C64.2173 466.012 86.6206 480.92 86.6206 480.92L96.5776 473.168L104.045 430.233L84.7537 434.407Z" fill="#A0616A"/>
<path d="M79.153 453.49C79.153 453.49 81.2007 470.553 96.6681 466.494C96.6681 466.494 98.4447 488.672 100.934 491.654C103.423 494.636 110.269 503.58 99.067 503.58C87.8653 503.58 80.3976 502.984 76.6637 498.81C72.9298 494.636 64.2174 485.094 61.7282 483.902C59.2389 482.709 69.8182 457.067 71.6852 457.067C73.5521 457.067 79.153 453.49 79.153 453.49Z" fill="#2F2E41"/>
<path d="M71.0628 310.969C71.0628 310.969 67.9512 325.877 76.0413 343.17C84.1314 360.463 91.5992 401.609 87.8653 407.572C84.1314 413.536 77.2859 438.581 84.1314 442.159C90.9768 445.737 138.273 448.122 141.384 444.544C144.496 440.966 141.384 402.802 135.783 397.435C130.183 392.068 140.14 333.629 140.14 333.629L137.028 319.914L71.0628 310.969Z" fill="#3F3D56"/>
<path d="M117.114 200.054C129.143 200.054 138.895 190.709 138.895 179.182C138.895 167.656 129.143 158.311 117.114 158.311C105.085 158.311 95.333 167.656 95.333 179.182C95.333 190.709 105.085 200.054 117.114 200.054Z" fill="#A0616A"/>
<path d="M103.423 186.338C103.423 186.338 95.333 205.42 84.1313 207.805C72.9297 210.191 69.8181 244.777 69.8181 244.777L120.848 235.236L136.406 228.677C136.406 228.677 137.65 214.365 132.049 211.383C126.449 208.402 115.247 209.594 115.247 209.594C115.247 209.594 115.247 197.668 120.848 195.283C126.449 192.897 103.423 186.338 103.423 186.338Z" fill="#A0616A"/>
<path d="M103.423 230.466C103.423 230.466 102.178 207.209 84.1312 210.191C84.1312 210.191 80.3973 208.998 72.3073 220.328L69.818 215.558C69.818 215.558 80.3973 206.175 86.6205 206.991C92.8436 207.806 96.5775 204.228 109.646 230.466L127.693 228.081L125.826 207.209H127.693L132.672 225.099C132.672 225.099 139.517 225.099 140.139 230.466V235.833C140.139 235.833 150.719 242.989 148.852 258.493C146.985 273.997 146.363 287.713 146.363 287.713C146.363 287.713 143.873 307.987 146.363 315.143C148.852 322.299 163.165 341.381 151.963 343.17C140.762 344.959 136.406 344.959 136.406 344.959L133.916 329.455C133.916 329.455 135.783 336.014 123.959 336.611C112.135 337.207 77.2858 327.666 77.2858 326.473C77.2858 325.281 78.5304 313.354 75.4188 315.74C72.3073 318.125 71.0626 330.648 66.7064 330.648C62.3503 330.648 73.5519 281.749 73.5519 281.749L69.818 244.778V240.603C69.818 240.603 94.0882 242.989 103.423 230.466Z" fill="#D0CDE1"/>
<path d="M82.8866 213.173C82.8866 213.173 69.818 223.906 68.5734 257.896C67.3288 291.887 108.401 320.51 108.401 320.51C108.401 320.51 119.603 356.289 127.693 347.941C135.783 339.592 117.114 312.162 117.114 312.162L88.4874 275.786L97.1998 222.714C97.1998 222.714 97.1998 210.191 82.8866 213.173Z" fill="#A0616A"/>
<path d="M71.8579 231.318C71.8579 231.318 66.7068 232.255 65.4621 240.007C64.2175 247.759 70.4406 254.915 73.5522 254.915C76.6638 254.915 107.157 249.548 110.891 244.778C114.625 240.007 124.582 241.796 124.582 241.796L103.423 231.062C103.423 231.062 87.9515 244.571 70.4837 239.308L71.8579 231.318Z" fill="#D0CDE1"/>
<path d="M141.386 201.745C140.126 199.656 138.178 197.835 136.761 195.802C135.677 194.401 135.093 192.702 135.097 190.958C133.103 193.756 130.428 196.047 127.302 197.632C124.177 199.216 120.695 200.047 117.159 200.052C115.25 204.374 115.247 210.191 115.247 210.191C115.247 210.191 118.899 216.767 114.618 217.565C114.889 217.615 115.158 217.671 115.42 217.742C119.716 218.912 121.105 222.807 123.923 225.478C126.77 228.176 131.513 229.71 136.119 229.422C138.003 229.304 140.042 228.792 140.941 227.56C142.554 225.35 139.556 222.892 138.851 220.434C137.983 217.404 140.705 214.534 142.032 211.596C142.742 210.021 143.053 208.308 142.941 206.596C142.829 204.884 142.296 203.222 141.386 201.745Z" fill="#3F3D56"/>
<path d="M95.8103 150.506C93.5655 151.45 91.4696 152.691 89.5833 154.191C84.8432 157.795 80.7259 162.317 78.4728 167.698C76.2197 173.079 75.9894 179.38 78.6518 184.586C79.8364 186.903 81.6056 189.144 81.5095 191.722C81.3871 195.006 78.2983 197.429 75.2788 198.986C72.2593 200.544 68.8459 201.86 66.9998 204.629C63.9116 209.262 66.6351 215.629 64.5511 220.75C63.8437 222.488 62.573 224.301 63.2413 226.054C67.4757 226.474 71.6053 224.535 74.9849 222.054C78.3645 219.574 81.2586 216.518 84.7161 214.138C89.374 210.932 95.0337 208.961 98.8826 204.887C100.794 202.823 102.147 200.34 102.824 197.658C103.5 194.976 103.48 192.176 102.763 189.503C102.366 188.081 101.765 186.673 101.808 185.201C101.878 182.778 103.663 180.724 105.559 179.119C107.455 177.514 109.608 176.08 110.873 173.98C112.143 171.87 112.36 169.344 113.147 167.028C113.934 164.712 115.687 162.35 118.221 162.151C119.763 162.029 121.228 162.742 122.596 163.435L129.787 167.073C130.51 167.54 131.375 167.765 132.245 167.713C133.831 167.439 134.416 165.533 134.351 163.991C134.136 158.904 130.388 154.385 125.712 151.968C121.364 149.721 116.241 148.979 111.35 148.987C106.176 148.995 100.694 148.577 95.8103 150.506Z" fill="#3F3D56"/>
<path d="M204.878 158.743C211.668 160.882 217.141 166.119 220.185 172.316C221.335 174.571 222.079 176.997 222.385 179.489C222.882 184.142 221.434 188.772 219.772 193.169C218.463 196.632 217 200.433 218.34 203.885C218.804 205.082 219.587 206.155 219.972 207.378C220.312 208.534 220.29 209.761 219.908 210.905C219.526 212.049 218.801 213.06 217.824 213.812C216.454 214.828 214.57 215.375 213.802 216.863C215.308 216.877 216.368 218.234 217.178 219.451L221.037 225.247L206.575 233.324C206.305 228.296 205.301 223.33 203.592 218.57C203.508 218.237 203.321 217.937 203.053 217.71C202.703 217.524 202.295 217.462 201.901 217.534C199.07 217.761 196.298 218.417 193.493 218.845C187.182 219.809 180.504 219.574 174.692 217.026C172.572 216.198 170.727 214.831 169.358 213.072C168.081 211.265 167.64 208.808 168.687 206.871C170.281 203.922 174.392 203.271 176.931 201.011C178.061 205.322 183.144 207.865 187.771 207.55C188.893 207.496 189.994 207.243 191.019 206.802C193.13 205.839 194.56 203.908 195.766 201.988C199.016 196.605 201.565 190.861 203.356 184.883C203.927 183.262 204.316 181.587 204.517 179.886C204.975 174.653 201.95 169.374 197.287 166.616C192.623 163.857 187.853 165 182.768 166.958C184.478 166.299 184.366 163 185.727 161.874C187.437 160.511 189.399 159.469 191.511 158.803C195.843 157.403 200.532 157.382 204.878 158.743Z" fill="#D0CDE1"/>
<path d="M591.739 236.928C591.739 236.928 627.211 245.873 627.833 250.047C628.455 254.222 609.786 265.603 609.786 265.603L570.58 247.662L591.739 236.928Z" fill="#3F3D56"/>
<path opacity="0.1" d="M591.739 236.928C591.739 236.928 627.211 245.873 627.833 250.047C628.455 254.222 609.786 265.603 609.786 265.603L570.58 247.662L591.739 236.928Z" fill="black"/>
<path d="M610.097 230.071C610.097 230.071 598.895 243.19 585.204 241.998C571.513 240.805 602.007 270.025 602.007 270.025L617.564 256.906C617.564 256.906 621.921 239.612 625.655 239.016C629.388 238.42 610.097 230.071 610.097 230.071Z" fill="#CF9595"/>
<path opacity="0.1" d="M610.097 230.071C610.097 230.071 598.895 243.19 585.204 241.998C571.513 240.805 602.007 270.025 602.007 270.025L617.564 256.906C617.564 256.906 621.921 239.612 625.655 239.016C629.388 238.42 610.097 230.071 610.097 230.071Z" fill="black"/>
<path d="M679.174 407.774C679.174 407.774 681.041 418.508 675.44 420.893C669.839 423.279 658.638 459.654 658.638 459.654L669.217 469.792L699.088 423.279C699.088 423.279 707.801 406.582 704.689 406.582C701.577 406.582 679.174 407.774 679.174 407.774Z" fill="#FFB9B9"/>
<path opacity="0.1" d="M679.174 407.774C679.174 407.774 681.041 418.508 675.44 420.893C669.839 423.279 658.638 459.654 658.638 459.654L669.217 469.792L699.088 423.279C699.088 423.279 707.801 406.582 704.689 406.582C701.577 406.582 679.174 407.774 679.174 407.774Z" fill="black"/>
<path d="M661.127 458.461L658.637 457.269C658.637 457.269 644.324 464.425 646.191 468.003C648.058 471.581 652.414 478.736 652.414 481.122C652.414 483.507 654.903 497.819 662.993 499.011C671.084 500.204 671.084 493.048 669.839 490.066C668.594 487.085 667.972 476.947 668.594 473.369C669.136 470.87 670.109 468.474 671.471 466.281L661.127 458.461Z" fill="#2F2E41"/>
<path d="M648.681 404.793C648.681 404.793 646.814 449.517 659.882 468.003C659.882 468.003 664.861 481.122 665.483 482.314C666.105 483.507 676.685 478.14 676.685 478.14C676.685 478.14 671.084 442.361 671.706 436.398C672.329 430.434 668.595 422.682 668.595 422.682L667.972 404.793H648.681Z" fill="#FFB9B9"/>
<path d="M677.929 475.158L664.935 481.043C664.935 481.043 666.105 490.066 666.727 491.855C667.35 493.644 658.015 506.763 667.972 507.956C677.929 509.149 687.886 507.956 685.397 504.974C682.907 501.993 679.173 488.874 679.796 485.296C680.418 481.718 677.929 475.158 677.929 475.158Z" fill="#2F2E41"/>
<path d="M651.792 238.42C651.792 238.42 643.702 237.824 642.457 260.484C641.692 273.593 641.692 286.732 642.457 299.841L662.371 300.437L660.504 264.658L651.792 238.42Z" fill="#FFB9B9"/>
<path d="M675.44 221.127C675.44 221.127 677.307 234.246 668.594 235.438C659.882 236.631 678.551 255.117 678.551 255.117L702.822 241.998C702.822 241.998 693.487 225.897 698.465 218.145C703.444 210.393 675.44 221.127 675.44 221.127Z" fill="#FFB9B9"/>
<path opacity="0.1" d="M675.44 221.127C675.44 221.127 677.307 234.246 668.594 235.438C659.882 236.631 678.551 255.117 678.551 255.117L702.822 241.998C702.822 241.998 693.487 225.897 698.465 218.145C703.444 210.393 675.44 221.127 675.44 221.127Z" fill="black"/>
<path d="M625.655 247.364C637.684 247.364 647.436 238.02 647.436 226.493C647.436 214.966 637.684 205.622 625.655 205.622C613.625 205.622 603.874 214.966 603.874 226.493C603.874 238.02 613.625 247.364 625.655 247.364Z" fill="#CF9595"/>
<path d="M684.152 228.282C696.181 228.282 705.933 218.938 705.933 207.411C705.933 195.884 696.181 186.54 684.152 186.54C672.123 186.54 662.371 195.884 662.371 207.411C662.371 218.938 672.123 228.282 684.152 228.282Z" fill="#FFB9B9"/>
<path d="M560.312 280.759C560.312 280.759 559.69 302.822 560.312 306.4C560.934 309.978 556.578 340.39 556.578 340.39L570.269 330.849C570.269 330.849 580.848 298.648 576.492 290.3C572.136 281.951 560.312 280.759 560.312 280.759Z" fill="#CF9595"/>
<path d="M631.878 290.3C631.878 290.3 629.389 308.189 637.479 309.382C645.569 310.574 647.436 295.667 647.436 295.667L644.324 280.759L631.878 290.3Z" fill="#CF9595"/>
<path d="M613.873 221.918C614.994 222.893 616.117 223.958 617.56 224.396C619.978 225.13 622.922 223.988 624.984 225.403C626.945 226.748 627.1 229.817 629.245 230.873C630.14 231.226 631.11 231.367 632.074 231.282L639.66 231.196C639.472 231.658 639.389 232.152 639.416 232.646C639.444 233.14 639.581 233.624 639.819 234.063C640.056 234.503 640.389 234.888 640.795 235.195C641.201 235.501 641.67 235.721 642.171 235.84C642.965 235.984 643.961 235.948 644.354 236.625C644.779 237.355 644.579 238.81 645.429 238.617C646.417 236.997 647.788 235.622 649.432 234.602C650.359 234.029 651.413 233.53 651.966 232.616C652.729 231.354 652.285 229.778 652.23 228.32C652.061 223.786 655.883 219.545 654.911 215.105C654.616 213.997 654.173 212.93 653.594 211.931L648.741 202.648C647.883 201.007 646.886 199.238 645.115 198.54C642.434 197.483 639.559 199.365 636.705 199.847C633.46 200.395 630.235 199.094 627.066 198.232C623.898 197.369 620.114 197.059 617.66 199.164C616.663 200.019 615.971 201.216 614.807 201.848C612.821 202.927 609.683 202.295 608.671 204.257C608.174 205.219 608.502 206.394 608.178 207.421C607.737 208.823 606.244 209.608 604.997 210.454C603.751 211.3 602.54 212.703 603.048 214.083C603.265 214.671 603.766 215.133 603.969 215.726C604.341 216.816 603.62 217.935 603.063 218.951C601.208 222.339 604.261 222.995 606.573 221.474C609.39 219.621 611.038 219.45 613.873 221.918Z" fill="#3F3D56"/>
<path d="M669.217 231.264C669.217 231.264 670.461 243.19 680.418 243.19C690.376 243.19 699.609 235.225 699.609 235.225C699.609 235.225 717.135 239.612 717.135 241.998C717.135 244.383 702.822 261.676 702.822 261.676C702.822 261.676 696.599 306.996 699.088 309.382C701.577 311.767 727.714 397.041 723.358 404.197C719.002 411.352 720.869 411.352 691.62 413.141C662.371 414.93 659.882 420.893 647.436 411.949C634.99 403.004 633.123 397.637 628.144 397.041C623.166 396.444 617.565 330.849 622.543 321.904C627.522 312.96 636.234 301.63 639.346 299.244C642.457 296.859 649.826 274.129 649.826 274.129L649.925 237.227L669.217 231.264Z" fill="#FF6585"/>
<path d="M711.534 240.805C711.534 240.805 725.847 239.016 721.491 253.328C717.135 267.64 710.912 293.878 700.955 295.07C690.998 296.263 702.822 260.484 702.822 260.484L711.534 240.805Z" fill="#FFB9B9"/>
<path d="M680.832 185.204C687.693 183.758 694.965 183.424 701.666 185.446C708.368 187.468 714.426 192.091 716.9 198.391C719.374 204.692 717.631 212.595 711.999 216.619C709.065 218.715 705.315 219.711 702.726 222.19C699.934 224.865 698.572 229.162 694.858 230.444C694.038 227.81 693.952 225.015 694.609 222.338C695.075 220.944 695.407 219.512 695.601 218.059C695.676 216.597 695.133 214.98 693.799 214.267C692.381 213.509 690.623 213.995 689.003 213.88C684.975 213.595 682.367 209.724 680.853 206.135C679.34 202.546 677.984 198.472 674.49 196.529C671.199 194.699 667.55 195.541 664.04 196.01C663.513 194.162 668.924 190.142 670.514 189.11C673.666 187.198 677.167 185.873 680.832 185.204Z" fill="#3F3D56"/>
<path d="M708.423 280.758C708.423 280.758 702.822 256.905 702.822 253.924C702.822 250.942 699.71 236.63 701.577 233.053C703.444 229.475 707.8 209.2 700.955 210.989C694.109 212.778 690.998 238.419 690.998 238.419C690.998 238.419 692.243 253.327 690.998 258.098C689.753 262.868 690.376 294.473 694.732 295.07C699.088 295.666 708.423 292.684 708.423 280.758Z" fill="#FFB9B9"/>
<path d="M714.334 207.113C721.896 207.113 728.025 201.239 728.025 193.994C728.025 186.749 721.896 180.875 714.334 180.875C706.773 180.875 700.644 186.749 700.644 193.994C700.644 201.239 706.773 207.113 714.334 207.113Z" fill="#3F3D56"/>
<path d="M567.468 247.663C567.468 247.663 555.333 264.658 555.333 284.336C555.333 284.336 570.269 283.74 578.981 295.666C587.693 307.593 567.468 247.663 567.468 247.663Z" fill="#3F3D56"/>
<path d="M565.913 454.287C565.913 454.287 575.247 473.369 575.247 482.911C575.247 492.452 594.539 484.699 594.539 484.699C594.539 484.699 582.093 453.691 583.337 449.517C584.582 445.342 565.913 454.287 565.913 454.287Z" fill="#CF9595"/>
<path d="M600.14 453.095C600.14 453.095 602.755 488.623 599.581 491.73C596.406 494.837 611.964 493.048 611.964 493.048C611.964 493.048 611.964 466.214 616.942 455.48L600.14 453.095Z" fill="#CF9595"/>
<path d="M573.38 328.464C573.38 328.464 554.711 336.812 554.711 340.39C554.711 343.968 551.599 361.858 550.355 363.647C549.11 365.436 549.11 381.536 550.355 383.922C551.599 386.307 554.089 459.654 563.423 459.654C572.758 459.654 585.827 455.48 586.449 451.902C586.449 451.902 577.737 419.104 580.848 410.756C583.96 402.407 585.204 374.977 591.428 371.399C597.651 367.821 597.651 374.977 597.651 374.977L596.406 425.068C596.406 425.068 595.161 457.269 597.651 457.865C600.14 458.461 616.32 460.847 618.187 458.461C620.054 456.076 626.277 423.279 626.277 419.701C626.277 416.123 632.5 377.958 633.123 373.784C633.745 369.61 635.612 333.831 631.256 331.445C626.899 329.06 573.38 328.464 573.38 328.464Z" fill="#2F2E41"/>
<path d="M583.337 482.314C583.337 482.314 577.114 477.543 573.38 486.488C571.236 491.748 567.824 496.447 563.423 500.204C563.423 500.204 560.934 506.167 571.513 504.974C582.093 503.782 600.14 493.048 600.14 493.048C600.14 493.048 595.699 482.148 593.563 482.231C591.427 482.314 590.183 486.488 583.337 482.314Z" fill="#2F2E41"/>
<path d="M609.475 488.874C609.475 488.874 600.146 486.489 598.276 488.874C596.406 491.259 593.917 504.974 597.028 506.763C600.14 508.552 613.831 507.956 615.698 506.763C617.565 505.571 615.698 497.819 615.698 497.819L609.475 488.874Z" fill="#2F2E41"/>
<path d="M598.895 251.538C598.895 251.538 589.56 243.786 592.05 237.227C592.05 237.227 564.046 246.172 564.668 253.327C565.29 260.483 576.492 290.299 576.492 290.299C576.492 290.299 558.445 323.693 567.78 330.849C577.114 338.005 574.625 329.656 590.805 335.023C606.985 340.39 613.831 338.005 620.054 336.812C626.277 335.62 627.522 336.216 631.878 336.216C636.234 336.216 633.745 324.289 631.878 317.73C630.011 311.17 627.522 301.629 629.389 299.244C631.255 296.859 647.436 255.116 647.436 255.116C647.436 255.116 634.869 245.476 619.993 248.805C619.993 248.805 609.475 256.905 598.895 251.538Z" fill="#403E56"/>
<path d="M641.213 256.906C641.213 256.309 647.436 255.117 647.436 255.117C647.436 255.117 651.17 278.969 649.303 283.74C647.436 288.511 631.878 293.877 629.389 293.281C626.9 292.685 641.213 256.906 641.213 256.906Z" fill="#3F3D56"/>
<path d="M627.512 211.836C635.607 211.836 642.17 205.547 642.17 197.79C642.17 190.032 635.607 183.744 627.512 183.744C619.416 183.744 612.854 190.032 612.854 197.79C612.854 205.547 619.416 211.836 627.512 211.836Z" fill="#3F3D56"/>
</g>
<defs>
<clipPath id="clip0">
<rect width="772" height="524" fill="white"/>
</clipPath>
</defs>
</svg>
